<svg width="544" height="461" viewBox="0 0 544 461" fill="none" xmlns="http://www.w3.org/2000/svg">
<rect x="54.7944" width="329.722" height="212.462" rx="30" transform="rotate(14.945 54.7944 0)" fill="url(#paint0_linear_0_177)"/>
<path d="M43.1516 149.742C42.3081 149.517 41.6578 149.18 41.2008 148.731C40.7462 148.273 40.4086 147.755 40.188 147.177L41.1887 146.723C41.4345 147.279 41.7293 147.723 42.0733 148.055C42.4262 148.39 42.8853 148.632 43.4507 148.783C44.1327 148.965 44.6951 148.947 45.1379 148.729C45.5806 148.511 45.8775 148.119 46.0284 147.554C46.1506 147.096 46.115 146.707 45.9219 146.386C45.7311 146.056 45.327 145.751 44.7097 145.471L43.7064 145.016C43.2703 144.813 42.9168 144.589 42.6458 144.344C42.3838 144.101 42.1886 143.842 42.06 143.567C41.9338 143.283 41.8663 142.996 41.8574 142.706C41.8509 142.406 41.8871 142.108 41.9662 141.812C42.1961 140.95 42.6525 140.375 43.3352 140.086C44.0179 139.797 44.8393 139.781 45.7995 140.037C46.5533 140.239 47.1525 140.533 47.5969 140.921C48.0503 141.311 48.373 141.777 48.5649 142.319L47.5875 142.793C47.4183 142.383 47.1784 142.021 46.868 141.707C46.5575 141.393 46.1107 141.159 45.5274 141.003C44.8902 140.833 44.3652 140.837 43.9524 141.015C43.5395 141.193 43.2612 141.552 43.1175 142.09C43.0049 142.512 43.0384 142.891 43.2178 143.227C43.4085 143.557 43.8204 143.869 44.4533 144.163L45.4161 144.607C45.8523 144.81 46.2058 145.034 46.4768 145.28C46.7477 145.525 46.9475 145.785 47.0761 146.06C47.2136 146.337 47.2856 146.625 47.2921 146.925C47.2986 147.225 47.2612 147.527 47.1797 147.832C46.9474 148.702 46.4782 149.308 45.7721 149.648C45.075 149.991 44.2015 150.022 43.1516 149.742ZM51.2604 151.863C50.8925 151.765 50.6526 151.619 50.5408 151.426C50.4379 151.235 50.4176 151.023 50.4799 150.789L50.5446 150.547C50.6069 150.314 50.7302 150.14 50.9145 150.026C51.1077 149.914 51.3883 149.907 51.7563 150.005C52.1242 150.104 52.3596 150.248 52.4624 150.439C52.5743 150.632 52.5991 150.846 52.5368 151.079L52.4721 151.321C52.4098 151.554 52.282 151.727 52.0888 151.839C51.9045 151.953 51.6284 151.961 51.2604 151.863ZM62.7078 149.742L63.5019 146.767L63.3942 146.738L60.1256 151.042L59.4368 145.682L59.3291 145.653L58.535 148.628L57.2775 153.339L56.241 153.063L58.7489 143.667L60.2027 144.055L60.7517 148.643L60.8325 148.664L63.5947 144.96L64.9947 145.334L62.4868 154.73L61.4503 154.453L62.7078 149.742ZM67.3919 156.212C66.8176 156.059 66.3528 155.819 65.9975 155.494C65.6446 155.159 65.3886 154.75 65.2296 154.265C65.0706 153.78 65.0085 153.221 65.0433 152.586C65.0782 151.951 65.1986 151.248 65.4046 150.476C65.6082 149.713 65.853 149.048 66.1392 148.48C66.4277 147.904 66.7616 147.445 67.141 147.104C67.5204 146.763 67.9453 146.54 68.4155 146.435C68.8882 146.321 69.4117 146.34 69.986 146.493C70.5604 146.647 71.024 146.891 71.3769 147.225C71.7322 147.551 71.9894 147.956 72.1484 148.44C72.3074 148.925 72.3683 149.489 72.3311 150.133C72.2962 150.768 72.177 151.467 71.9734 152.229C71.7674 153.001 71.5213 153.671 71.2352 154.239C70.9491 154.806 70.6163 155.261 70.237 155.601C69.8576 155.942 69.4315 156.17 68.9588 156.284C68.4886 156.389 67.9663 156.365 67.3919 156.212ZM67.6542 155.229C68.0311 155.33 68.3689 155.343 68.6674 155.269C68.9684 155.186 69.24 155.033 69.4824 154.809C69.7248 154.585 69.9321 154.294 70.1045 153.937C70.2883 153.572 70.4436 153.152 70.5706 152.677L70.9802 151.142C71.1047 150.676 71.1781 150.239 71.2004 149.831C71.2316 149.426 71.1979 149.066 71.0992 148.752C71.0006 148.437 70.8403 148.173 70.6184 147.96C70.3989 147.738 70.1007 147.577 69.7238 147.476C69.3469 147.375 69.0079 147.367 68.707 147.45C68.4084 147.524 68.1379 147.673 67.8956 147.896C67.6532 148.12 67.4402 148.414 67.2564 148.778C67.0816 149.145 66.9319 149.562 66.8074 150.029L66.3978 151.563C66.2708 152.039 66.1918 152.479 66.1606 152.884C66.1407 153.282 66.1801 153.639 66.2788 153.954C66.3774 154.268 66.5365 154.537 66.756 154.759C66.9779 154.972 67.2773 155.129 67.6542 155.229ZM75.4362 158.359C74.5926 158.134 73.9424 157.797 73.4854 157.348C73.0308 156.89 72.6932 156.372 72.4725 155.794L73.4733 155.341C73.7191 155.896 74.0139 156.34 74.3578 156.673C74.7108 157.007 75.1699 157.25 75.7352 157.401C76.4172 157.583 76.9796 157.565 77.4224 157.346C77.8652 157.128 78.1621 156.736 78.313 156.171C78.4351 155.713 78.3996 155.324 78.2064 155.003C78.0157 154.674 77.6116 154.369 76.9942 154.089L75.991 153.633C75.5549 153.43 75.2014 153.206 74.9304 152.961C74.6684 152.718 74.4731 152.459 74.3445 152.185C74.2184 151.901 74.1508 151.614 74.1419 151.323C74.1354 151.023 74.1717 150.725 74.2507 150.429C74.4807 149.568 74.937 148.993 75.6197 148.704C76.3025 148.415 77.1239 148.399 78.0841 148.655C78.8379 148.856 79.437 149.151 79.8815 149.538C80.3349 149.929 80.6575 150.394 80.8495 150.936L79.872 151.41C79.7028 151 79.463 150.638 79.1525 150.324C78.8421 150.011 78.3952 149.776 77.8119 149.62C77.1748 149.45 76.6498 149.454 76.2369 149.633C75.8241 149.811 75.5458 150.169 75.4021 150.708C75.2895 151.129 75.3229 151.508 75.5023 151.845C75.6931 152.174 76.1049 152.486 76.7379 152.78L77.7007 153.225C78.1368 153.427 78.4903 153.652 78.7613 153.897C79.0323 154.142 79.2321 154.402 79.3606 154.677C79.4982 154.954 79.5702 155.242 79.5767 155.542C79.5832 155.842 79.5457 156.144 79.4643 156.449C79.232 157.32 78.7628 157.925 78.0567 158.266C77.3596 158.608 76.4861 158.639 75.4362 158.359ZM86.3883 152.097L84.1427 160.51L83.012 160.208L85.2576 151.795L82.1212 150.958L82.3835 149.976L89.7869 151.952L89.5246 152.934L86.3883 152.097ZM94.0849 163.164L94.0057 160.273L90.7078 159.393L89.1986 161.86L88.0276 161.547L93.416 152.92L94.9101 153.319L95.2829 163.484L94.0849 163.164ZM93.8904 154.33L93.7693 154.298L91.2393 158.482L93.9987 159.219L93.8904 154.33ZM96.8929 163.913L99.4007 154.518L105.323 156.099L105.061 157.081L100.269 155.802L99.4248 158.966L103.813 160.137L103.551 161.119L99.1625 159.948L98.0236 164.215L96.8929 163.913ZM110.227 167.473L110.148 164.582L106.85 163.702L105.341 166.168L104.17 165.856L109.558 157.229L111.052 157.628L111.425 167.792L110.227 167.473ZM110.033 158.639L109.912 158.607L107.382 162.791L110.141 163.527L110.033 158.639ZM121.106 170.376L123.614 160.981L129.402 162.526L129.14 163.508L124.483 162.265L123.638 165.429L128.134 166.629L127.872 167.611L123.376 166.411L122.499 169.696L127.157 170.939L126.894 171.921L121.106 170.376ZM131.934 173.44C131.091 173.214 130.44 172.877 129.983 172.429C129.529 171.971 129.191 171.453 128.971 170.875L129.971 170.421C130.217 170.977 130.512 171.421 130.856 171.753C131.209 172.088 131.668 172.33 132.233 172.481C132.915 172.663 133.478 172.645 133.92 172.427C134.363 172.209 134.66 171.817 134.811 171.251C134.933 170.794 134.898 170.405 134.704 170.084C134.514 169.754 134.11 169.449 133.492 169.169L132.489 168.714C132.053 168.511 131.699 168.287 131.428 168.041C131.166 167.798 130.971 167.54 130.843 167.265C130.716 166.981 130.649 166.694 130.64 166.403C130.633 166.104 130.67 165.806 130.749 165.51C130.979 164.648 131.435 164.073 132.118 163.784C132.8 163.495 133.622 163.479 134.582 163.735C135.336 163.937 135.935 164.231 136.379 164.619C136.833 165.009 137.156 165.475 137.347 166.016L136.37 166.491C136.201 166.081 135.961 165.718 135.651 165.405C135.34 165.091 134.893 164.857 134.31 164.701C133.673 164.531 133.148 164.535 132.735 164.713C132.322 164.891 132.044 165.25 131.9 165.788C131.787 166.21 131.821 166.589 132 166.925C132.191 167.255 132.603 167.567 133.236 167.861L134.199 168.305C134.635 168.508 134.988 168.732 135.259 168.977C135.53 169.223 135.73 169.483 135.859 169.758C135.996 170.035 136.068 170.323 136.075 170.623C136.081 170.922 136.044 171.225 135.962 171.53C135.73 172.4 135.261 173.006 134.555 173.346C133.858 173.689 132.984 173.72 131.934 173.44ZM143.419 171.285L144.213 168.311L144.106 168.282L140.837 172.586L140.148 167.225L140.04 167.197L139.246 170.172L137.989 174.883L136.952 174.606L139.46 165.211L140.914 165.599L141.463 170.186L141.544 170.208L144.306 166.504L145.706 166.878L143.198 176.273L142.162 175.997L143.419 171.285ZM150.583 178.244L150.504 175.354L147.206 174.473L145.697 176.94L144.526 176.628L149.914 168.001L151.408 168.4L151.781 178.564L150.583 178.244ZM150.388 169.411L150.267 169.379L147.737 173.563L150.497 174.299L150.388 169.411ZM153.391 178.994L155.899 169.598L161.687 171.143L161.425 172.126L156.767 170.883L155.923 174.046L160.419 175.246L160.156 176.229L155.661 175.029L154.784 178.313L159.441 179.556L159.179 180.539L153.391 178.994ZM161.381 181.127L161.622 180.225L163.964 180.85L165.991 173.258L163.648 172.633L163.889 171.731L169.704 173.283L169.463 174.185L167.121 173.56L165.095 181.152L167.437 181.777L167.196 182.679L161.381 181.127ZM169.937 183.41L172.445 174.015L173.576 174.317L171.33 182.73L175.785 183.919L175.523 184.901L169.937 183.41ZM177.524 185.435L177.764 184.534L180.106 185.159L182.133 177.567L179.791 176.942L180.031 176.04L185.846 177.592L185.606 178.494L183.264 177.869L181.237 185.46L183.579 186.086L183.339 186.988L177.524 185.435Z" fill="white"/>
<path d="M37.3825 173.27C36.8172 173.119 36.3329 172.898 35.9297 172.608C35.5379 172.311 35.2326 171.96 35.0137 171.556C34.7972 171.142 34.6693 170.685 34.6299 170.184C34.5905 169.684 34.6463 169.151 34.7972 168.585C34.9721 167.93 35.2405 167.338 35.6026 166.81C35.9671 166.273 36.3768 165.801 36.8316 165.394C37.2977 164.98 37.7854 164.629 38.2946 164.342C38.8128 164.057 39.3097 163.834 39.7854 163.673L42.5718 164.417C41.8807 164.665 41.2515 164.915 40.6843 165.167C40.1284 165.413 39.6252 165.678 39.1746 165.961C38.7354 166.238 38.3509 166.544 38.0212 166.879C37.7004 167.216 37.4296 167.601 37.2087 168.032L37.3191 168.105C37.4478 167.947 37.5932 167.798 37.7554 167.659C37.9175 167.519 38.1006 167.41 38.3047 167.33C38.5111 167.241 38.7373 167.186 38.9832 167.165C39.2381 167.146 39.5181 167.178 39.8232 167.259C40.218 167.364 40.5668 167.534 40.8694 167.769C41.1745 167.995 41.4135 168.27 41.5863 168.595C41.7705 168.913 41.8865 169.271 41.9343 169.668C41.982 170.066 41.946 170.489 41.8263 170.937C41.6993 171.413 41.4967 171.83 41.2184 172.188C40.9401 172.546 40.6044 172.832 40.2113 173.044C39.8295 173.25 39.3972 173.375 38.9144 173.419C38.4316 173.463 37.9209 173.413 37.3825 173.27ZM37.7894 171.691C38.274 171.82 38.6755 171.793 38.9938 171.609C39.3145 171.416 39.5372 171.086 39.6617 170.619L39.712 170.431C39.8366 169.964 39.8011 169.575 39.6055 169.263C39.4213 168.945 39.0914 168.722 38.6158 168.595C38.1581 168.473 37.7656 168.503 37.4383 168.685C37.1134 168.857 36.8887 169.177 36.7641 169.644L36.7138 169.832C36.5893 170.299 36.6134 170.695 36.7862 171.02C36.9704 171.338 37.3048 171.562 37.7894 171.691ZM53.3623 177.362L46.605 175.558L47.0973 173.714L50.7161 172.041C51.345 171.738 51.8147 171.455 52.1253 171.192C52.4359 170.928 52.6391 170.617 52.7349 170.258L52.7708 170.124C52.8762 169.729 52.8386 169.402 52.6579 169.142C52.4797 168.873 52.1932 168.686 51.7983 168.581C51.3497 168.461 50.9694 168.499 50.6577 168.695C50.3459 168.89 50.0928 169.154 49.8983 169.487L48.3146 168.343C48.5085 168.049 48.738 167.783 49.0031 167.546C49.2706 167.301 49.5766 167.108 49.9213 166.97C50.2749 166.833 50.6614 166.754 51.0808 166.731C51.5026 166.7 51.9648 166.751 52.4673 166.885C52.9788 167.021 53.4173 167.215 53.7828 167.467C54.1483 167.718 54.4366 168.007 54.6478 168.332C54.8589 168.658 54.9895 169.015 55.0397 169.403C55.0922 169.782 55.0646 170.174 54.9568 170.578C54.8514 170.972 54.6871 171.318 54.4639 171.614C54.252 171.904 53.9911 172.161 53.6812 172.386C53.3802 172.613 53.0367 172.819 52.6507 173.005C52.2738 173.192 51.8744 173.374 51.4525 173.55L49.2922 174.459L53.815 175.666L53.3623 177.362ZM59.7149 179.057L60.1497 177.429L62.6803 178.104L64.3618 171.805L64.2406 171.772L61.6609 173.766L60.6382 172.411L63.6766 170.05L66.7725 170.876L64.6994 178.643L66.6916 179.175L66.2568 180.804L59.7149 179.057ZM80.1283 178.263C79.9511 178.927 79.6814 179.523 79.3193 180.051C78.9572 180.579 78.5431 181.05 78.0769 181.464C77.6221 181.871 77.1356 182.217 76.6174 182.502C76.1082 182.789 75.6158 183.013 75.1401 183.175L72.3537 182.431C73.0448 182.183 73.6683 181.936 74.2242 181.69C74.7914 181.438 75.2946 181.173 75.7338 180.896C76.1844 180.613 76.5701 180.302 76.8909 179.965C77.2206 179.63 77.4959 179.247 77.7168 178.816L77.6064 178.743C77.4777 178.901 77.3278 179.048 77.1567 179.185C76.9945 179.325 76.8102 179.439 76.6038 179.528C76.4087 179.61 76.1837 179.661 75.9289 179.679C75.683 179.7 75.4075 179.67 75.1024 179.589C74.7075 179.483 74.3575 179.318 74.0525 179.092C73.7498 178.857 73.5064 178.581 73.3222 178.263C73.1493 177.938 73.039 177.577 72.9913 177.179C72.9435 176.782 72.9795 176.359 73.0993 175.91C73.2262 175.435 73.4288 175.018 73.7071 174.66C73.9854 174.301 74.3154 174.019 74.6972 173.814C75.0903 173.601 75.5283 173.473 76.0111 173.429C76.494 173.385 77.0046 173.434 77.543 173.578C78.1084 173.729 78.5869 173.953 78.9787 174.25C79.3819 174.54 79.6918 174.892 79.9082 175.305C80.1271 175.71 80.2562 176.163 80.2956 176.663C80.335 177.164 80.2792 177.697 80.1283 178.263ZM76.3097 178.253C76.7674 178.375 77.1587 178.349 77.4836 178.177C77.8109 177.995 78.0368 177.671 78.1614 177.204L78.2117 177.016C78.3362 176.549 78.3064 176.156 78.1222 175.838C77.9494 175.513 77.6207 175.286 77.1361 175.157C76.6515 175.027 76.2489 175.059 75.9281 175.252C75.6098 175.437 75.3883 175.762 75.2638 176.229L75.2135 176.417C75.0889 176.884 75.1188 177.276 75.303 177.595C75.4985 177.906 75.8341 178.126 76.3097 178.253ZM112.677 193.367C112.111 193.216 111.627 193.015 111.223 192.763C110.822 192.502 110.501 192.21 110.26 191.886C110.02 191.562 109.863 191.213 109.79 190.838C109.729 190.456 109.751 190.068 109.856 189.673C110.019 189.062 110.325 188.62 110.773 188.346C111.223 188.062 111.743 187.917 112.331 187.911L112.36 187.803C111.938 187.508 111.627 187.146 111.424 186.717C111.221 186.288 111.193 185.8 111.339 185.252C111.435 184.893 111.595 184.58 111.82 184.314C112.045 184.047 112.326 183.843 112.661 183.702C112.999 183.552 113.386 183.472 113.821 183.463C114.258 183.446 114.741 183.507 115.271 183.649C115.791 183.787 116.237 183.974 116.607 184.207C116.989 184.434 117.289 184.697 117.507 184.995C117.728 185.285 117.869 185.601 117.931 185.945C117.993 186.288 117.977 186.639 117.881 186.998C117.735 187.546 117.467 187.955 117.077 188.226C116.688 188.497 116.237 188.655 115.725 188.701L115.696 188.809C116.203 189.108 116.581 189.492 116.83 189.962C117.082 190.424 117.126 190.96 116.963 191.57C116.858 191.965 116.679 192.311 116.427 192.609C116.185 192.9 115.88 193.126 115.51 193.287C115.14 193.448 114.716 193.541 114.238 193.568C113.763 193.585 113.242 193.518 112.677 193.367ZM113.09 191.819C113.557 191.944 113.94 191.931 114.24 191.78C114.548 191.632 114.752 191.374 114.85 191.006L114.922 190.736C115.023 190.36 114.979 190.036 114.792 189.764C114.607 189.484 114.277 189.281 113.801 189.154C113.326 189.027 112.938 189.039 112.638 189.19C112.341 189.331 112.142 189.591 112.041 189.968L111.97 190.237C111.871 190.605 111.915 190.929 112.099 191.209C112.293 191.491 112.623 191.695 113.09 191.819ZM114.197 187.673C114.645 187.793 115.014 187.781 115.302 187.637C115.591 187.493 115.782 187.246 115.875 186.896L115.929 186.694C116.022 186.344 115.974 186.038 115.785 185.776C115.606 185.507 115.297 185.314 114.858 185.197C114.418 185.079 114.049 185.091 113.752 185.233C113.466 185.368 113.276 185.611 113.183 185.961L113.129 186.163C113.036 186.513 113.078 186.822 113.256 187.091C113.435 187.359 113.748 187.554 114.197 187.673ZM125.289 196.734C124.723 196.583 124.239 196.362 123.836 196.072C123.444 195.775 123.139 195.424 122.92 195.02C122.703 194.606 122.575 194.149 122.536 193.648C122.497 193.148 122.553 192.615 122.703 192.049C122.878 191.394 123.147 190.802 123.509 190.274C123.873 189.737 124.283 189.265 124.738 188.858C125.204 188.444 125.692 188.093 126.201 187.806C126.719 187.521 127.216 187.298 127.692 187.137L130.478 187.881C129.787 188.129 129.158 188.379 128.59 188.631C128.035 188.877 127.531 189.142 127.081 189.425C126.642 189.702 126.257 190.008 125.927 190.343C125.607 190.68 125.336 191.065 125.115 191.496L125.225 191.569C125.354 191.411 125.499 191.262 125.662 191.123C125.824 190.984 126.007 190.874 126.211 190.794C126.417 190.705 126.643 190.65 126.889 190.629C127.144 190.61 127.424 190.642 127.729 190.723C128.124 190.828 128.473 190.998 128.776 191.233C129.081 191.459 129.32 191.734 129.493 192.059C129.677 192.377 129.793 192.735 129.84 193.132C129.888 193.53 129.852 193.953 129.732 194.401C129.606 194.877 129.403 195.294 129.125 195.652C128.846 196.01 128.511 196.296 128.117 196.508C127.736 196.714 127.303 196.839 126.821 196.883C126.338 196.927 125.827 196.877 125.289 196.734ZM125.696 195.155C126.18 195.284 126.582 195.257 126.9 195.073C127.221 194.88 127.443 194.55 127.568 194.083L127.618 193.895C127.743 193.428 127.707 193.039 127.512 192.727C127.328 192.409 126.998 192.186 126.522 192.059C126.064 191.937 125.672 191.967 125.345 192.149C125.02 192.321 124.795 192.641 124.67 193.108L124.62 193.296C124.495 193.763 124.52 194.159 124.692 194.484C124.877 194.802 125.211 195.026 125.696 195.155ZM135.063 199.17L135.498 197.541L138.028 198.216L139.71 191.917L139.589 191.884L137.009 193.878L135.986 192.523L139.025 190.162L142.121 190.988L140.048 198.755L142.04 199.287L141.605 200.916L135.063 199.17ZM150.351 203.423C149.095 203.088 148.28 202.414 147.906 201.401C147.541 200.39 147.564 199.118 147.973 197.583C148.383 196.048 148.998 194.934 149.817 194.24C150.646 193.548 151.689 193.369 152.945 193.705C154.201 194.04 155.012 194.713 155.377 195.723C155.75 196.736 155.732 198.01 155.323 199.545C154.913 201.079 154.294 202.193 153.465 202.885C152.645 203.579 151.607 203.759 150.351 203.423ZM150.775 201.835C151.376 201.995 151.85 201.896 152.196 201.536C152.55 201.179 152.829 200.624 153.03 199.87L153.497 198.12C153.698 197.366 153.734 196.746 153.604 196.26C153.483 195.776 153.122 195.453 152.521 195.293C151.92 195.132 151.442 195.231 151.087 195.588C150.741 195.947 150.467 196.504 150.266 197.258L149.799 199.008C149.598 199.761 149.558 200.38 149.678 200.864C149.808 201.351 150.174 201.674 150.775 201.835ZM151.436 199.358C151.122 199.274 150.919 199.153 150.827 198.994C150.744 198.837 150.726 198.669 150.774 198.489L150.853 198.193C150.901 198.014 151 197.877 151.15 197.782C151.309 197.69 151.546 197.686 151.86 197.77C152.174 197.854 152.373 197.974 152.456 198.131C152.548 198.29 152.57 198.459 152.522 198.639L152.443 198.935C152.395 199.114 152.292 199.25 152.132 199.342C151.982 199.437 151.75 199.442 151.436 199.358ZM191.501 214.234L184.743 212.43L185.236 210.586L188.854 208.913C189.483 208.61 189.953 208.327 190.264 208.064C190.574 207.801 190.777 207.489 190.873 207.131L190.909 206.996C191.015 206.601 190.977 206.274 190.796 206.014C190.618 205.745 190.332 205.558 189.937 205.453C189.488 205.333 189.108 205.371 188.796 205.567C188.484 205.762 188.231 206.026 188.037 206.359L186.453 205.215C186.647 204.921 186.876 204.655 187.141 204.418C187.409 204.173 187.715 203.98 188.06 203.842C188.413 203.705 188.8 203.626 189.219 203.603C189.641 203.572 190.103 203.623 190.606 203.757C191.117 203.894 191.556 204.087 191.921 204.339C192.287 204.59 192.575 204.879 192.786 205.204C192.997 205.53 193.128 205.887 193.178 206.275C193.231 206.654 193.203 207.046 193.095 207.45C192.99 207.844 192.825 208.19 192.602 208.486C192.39 208.776 192.129 209.033 191.819 209.258C191.518 209.485 191.175 209.691 190.789 209.877C190.412 210.064 190.013 210.246 189.591 210.422L187.431 211.331L191.953 212.538L191.501 214.234ZM200.583 216.831C200.018 216.68 199.533 216.479 199.129 216.227C198.728 215.966 198.407 215.674 198.167 215.35C197.926 215.026 197.77 214.677 197.697 214.302C197.635 213.92 197.657 213.532 197.762 213.137C197.925 212.526 198.231 212.084 198.679 211.81C199.13 211.526 199.649 211.381 200.237 211.375L200.266 211.267C199.845 210.972 199.533 210.61 199.33 210.181C199.127 209.752 199.099 209.264 199.245 208.716C199.341 208.357 199.501 208.044 199.726 207.778C199.951 207.511 200.232 207.307 200.567 207.166C200.905 207.016 201.292 206.936 201.727 206.927C202.164 206.91 202.648 206.971 203.177 207.113C203.698 207.252 204.143 207.438 204.513 207.671C204.895 207.898 205.195 208.161 205.413 208.459C205.634 208.749 205.775 209.065 205.837 209.409C205.9 209.752 205.883 210.103 205.787 210.462C205.641 211.01 205.373 211.419 204.983 211.69C204.594 211.961 204.143 212.119 203.631 212.165L203.602 212.273C204.109 212.572 204.487 212.956 204.736 213.426C204.988 213.888 205.033 214.424 204.87 215.034C204.764 215.429 204.585 215.775 204.333 216.073C204.092 216.364 203.786 216.59 203.416 216.751C203.046 216.912 202.623 217.005 202.145 217.032C201.669 217.049 201.148 216.982 200.583 216.831ZM200.996 215.283C201.463 215.408 201.846 215.395 202.146 215.244C202.455 215.096 202.658 214.838 202.756 214.47L202.828 214.2C202.929 213.824 202.885 213.5 202.698 213.228C202.513 212.948 202.183 212.745 201.708 212.618C201.232 212.491 200.844 212.503 200.545 212.654C200.247 212.795 200.048 213.055 199.948 213.432L199.876 213.701C199.778 214.069 199.821 214.393 200.006 214.673C200.199 214.955 200.53 215.159 200.996 215.283ZM202.103 211.137C202.552 211.257 202.92 211.245 203.209 211.101C203.497 210.957 203.688 210.71 203.781 210.36L203.835 210.158C203.929 209.808 203.88 209.502 203.691 209.24C203.513 208.971 203.204 208.778 202.764 208.661C202.324 208.543 201.956 208.555 201.658 208.697C201.372 208.832 201.183 209.075 201.089 209.425L201.035 209.627C200.942 209.977 200.984 210.286 201.162 210.555C201.341 210.823 201.654 211.018 202.103 211.137ZM213.141 220.183C212.576 220.032 212.091 219.831 211.687 219.579C211.286 219.318 210.965 219.026 210.725 218.702C210.484 218.378 210.328 218.029 210.255 217.654C210.193 217.272 210.215 216.884 210.32 216.489C210.483 215.878 210.789 215.436 211.237 215.162C211.688 214.878 212.207 214.733 212.795 214.727L212.824 214.619C212.403 214.324 212.091 213.962 211.888 213.533C211.685 213.104 211.657 212.616 211.803 212.068C211.899 211.709 212.059 211.396 212.284 211.13C212.509 210.863 212.79 210.659 213.125 210.518C213.463 210.368 213.85 210.288 214.285 210.279C214.722 210.262 215.206 210.323 215.735 210.465C216.256 210.604 216.701 210.79 217.071 211.023C217.453 211.25 217.753 211.513 217.971 211.811C218.192 212.101 218.333 212.417 218.396 212.761C218.458 213.104 218.441 213.455 218.345 213.814C218.199 214.362 217.931 214.771 217.542 215.042C217.152 215.313 216.701 215.471 216.189 215.517L216.16 215.625C216.667 215.924 217.045 216.308 217.294 216.778C217.546 217.24 217.591 217.776 217.428 218.386C217.322 218.781 217.143 219.127 216.891 219.425C216.65 219.716 216.344 219.942 215.974 220.103C215.605 220.264 215.181 220.357 214.703 220.384C214.227 220.401 213.706 220.334 213.141 220.183ZM213.554 218.635C214.021 218.76 214.404 218.747 214.704 218.596C215.013 218.448 215.216 218.19 215.314 217.822L215.386 217.552C215.487 217.176 215.443 216.852 215.256 216.58C215.071 216.3 214.741 216.097 214.266 215.97C213.79 215.843 213.402 215.855 213.103 216.006C212.805 216.147 212.606 216.407 212.506 216.784L212.434 217.053C212.336 217.421 212.379 217.745 212.564 218.025C212.757 218.307 213.088 218.511 213.554 218.635ZM214.661 214.489C215.11 214.609 215.478 214.597 215.767 214.453C216.055 214.309 216.246 214.062 216.339 213.712L216.393 213.51C216.487 213.16 216.438 212.854 216.249 212.592C216.071 212.323 215.762 212.13 215.322 212.013C214.882 211.895 214.514 211.907 214.216 212.049C213.93 212.184 213.741 212.427 213.647 212.777L213.593 212.979C213.5 213.329 213.542 213.638 213.721 213.907C213.899 214.175 214.212 214.37 214.661 214.489ZM225.699 223.535C225.134 223.384 224.649 223.183 224.245 222.931C223.844 222.67 223.523 222.378 223.283 222.054C223.042 221.73 222.886 221.381 222.813 221.006C222.751 220.624 222.773 220.236 222.878 219.841C223.041 219.23 223.347 218.788 223.795 218.514C224.246 218.23 224.765 218.085 225.353 218.079L225.382 217.971C224.961 217.676 224.649 217.314 224.446 216.885C224.243 216.456 224.215 215.968 224.361 215.42C224.457 215.061 224.617 214.748 224.842 214.482C225.067 214.215 225.348 214.011 225.683 213.87C226.022 213.72 226.408 213.64 226.843 213.631C227.28 213.614 227.764 213.675 228.293 213.817C228.814 213.956 229.259 214.142 229.629 214.375C230.011 214.602 230.311 214.865 230.529 215.163C230.75 215.453 230.891 215.769 230.954 216.113C231.016 216.456 230.999 216.807 230.903 217.166C230.757 217.714 230.489 218.123 230.1 218.394C229.71 218.665 229.259 218.823 228.747 218.869L228.718 218.977C229.225 219.276 229.603 219.66 229.852 220.13C230.104 220.592 230.149 221.128 229.986 221.738C229.88 222.133 229.701 222.479 229.449 222.777C229.208 223.068 228.902 223.294 228.532 223.455C228.163 223.616 227.739 223.709 227.261 223.736C226.785 223.753 226.264 223.686 225.699 223.535ZM226.112 221.987C226.579 222.112 226.962 222.099 227.262 221.948C227.571 221.8 227.774 221.542 227.872 221.174L227.944 220.904C228.045 220.528 228.002 220.204 227.814 219.932C227.63 219.652 227.299 219.449 226.824 219.322C226.348 219.195 225.96 219.207 225.661 219.358C225.363 219.499 225.164 219.759 225.064 220.136L224.992 220.405C224.894 220.773 224.937 221.097 225.122 221.377C225.315 221.659 225.646 221.863 226.112 221.987ZM227.219 217.841C227.668 217.961 228.036 217.949 228.325 217.805C228.613 217.661 228.804 217.414 228.897 217.064L228.951 216.862C229.045 216.512 228.997 216.206 228.807 215.944C228.629 215.675 228.32 215.482 227.88 215.365C227.44 215.247 227.072 215.259 226.774 215.401C226.488 215.536 226.299 215.779 226.205 216.129L226.151 216.331C226.058 216.681 226.1 216.99 226.279 217.259C226.457 217.527 226.77 217.722 227.219 217.841ZM263.373 233.591C262.808 233.44 262.323 233.239 261.919 232.987C261.518 232.726 261.197 232.434 260.957 232.11C260.716 231.786 260.56 231.437 260.487 231.062C260.425 230.68 260.447 230.292 260.553 229.897C260.715 229.286 261.021 228.844 261.469 228.57C261.92 228.286 262.439 228.141 263.027 228.135L263.056 228.027C262.635 227.732 262.323 227.37 262.12 226.941C261.917 226.512 261.889 226.024 262.035 225.476C262.131 225.117 262.291 224.804 262.517 224.538C262.742 224.271 263.022 224.067 263.358 223.926C263.696 223.776 264.082 223.696 264.517 223.687C264.954 223.67 265.438 223.731 265.967 223.873C266.488 224.012 266.933 224.198 267.303 224.431C267.685 224.658 267.985 224.921 268.203 225.219C268.424 225.509 268.566 225.825 268.628 226.169C268.69 226.512 268.673 226.863 268.577 227.222C268.431 227.77 268.163 228.179 267.774 228.45C267.384 228.721 266.933 228.879 266.421 228.925L266.392 229.033C266.899 229.332 267.277 229.716 267.526 230.186C267.778 230.648 267.823 231.184 267.66 231.794C267.554 232.189 267.375 232.535 267.123 232.833C266.882 233.124 266.576 233.35 266.206 233.511C265.837 233.672 265.413 233.765 264.935 233.792C264.459 233.809 263.939 233.742 263.373 233.591ZM263.786 232.043C264.253 232.168 264.636 232.155 264.936 232.004C265.245 231.856 265.448 231.598 265.546 231.23L265.618 230.96C265.719 230.584 265.676 230.26 265.488 229.989C265.304 229.708 264.973 229.505 264.498 229.378C264.022 229.251 263.634 229.263 263.335 229.414C263.037 229.555 262.838 229.815 262.738 230.192L262.666 230.461C262.568 230.829 262.611 231.153 262.796 231.433C262.99 231.715 263.32 231.919 263.786 232.043ZM264.893 227.897C265.342 228.017 265.71 228.005 265.999 227.861C266.287 227.717 266.478 227.47 266.571 227.12L266.625 226.918C266.719 226.568 266.671 226.262 266.481 226C266.303 225.731 265.994 225.538 265.554 225.421C265.114 225.303 264.746 225.315 264.448 225.457C264.162 225.592 263.973 225.835 263.879 226.185L263.825 226.387C263.732 226.737 263.774 227.046 263.953 227.315C264.131 227.583 264.444 227.778 264.893 227.897ZM275.931 236.943C274.675 236.608 273.86 235.934 273.486 234.921C273.121 233.91 273.144 232.638 273.554 231.103C273.963 229.569 274.578 228.454 275.398 227.76C276.226 227.068 277.269 226.889 278.525 227.225C279.782 227.56 280.592 228.233 280.957 229.244C281.331 230.256 281.313 231.53 280.903 233.065C280.493 234.599 279.874 235.713 279.045 236.405C278.226 237.099 277.188 237.279 275.931 236.943ZM276.355 235.355C276.956 235.515 277.43 235.416 277.776 235.056C278.131 234.699 278.409 234.144 278.61 233.39L279.077 231.64C279.278 230.886 279.314 230.266 279.184 229.78C279.064 229.296 278.703 228.973 278.101 228.813C277.5 228.652 277.022 228.751 276.667 229.108C276.321 229.467 276.048 230.024 275.847 230.778L275.379 232.528C275.178 233.281 275.138 233.9 275.259 234.384C275.388 234.871 275.754 235.194 276.355 235.355ZM277.016 232.878C276.702 232.794 276.499 232.673 276.407 232.514C276.324 232.357 276.306 232.189 276.354 232.009L276.433 231.713C276.481 231.534 276.58 231.397 276.73 231.302C276.89 231.21 277.126 231.206 277.44 231.29C277.754 231.374 277.953 231.494 278.036 231.651C278.128 231.81 278.15 231.979 278.102 232.159L278.023 232.455C277.975 232.634 277.872 232.77 277.713 232.862C277.562 232.957 277.33 232.962 277.016 232.878ZM286.702 239.645L292.002 232.754L288.96 231.942L288.503 233.651L286.794 233.195L287.689 229.843L294.446 231.647L293.979 233.397L288.828 240.213L286.702 239.645ZM306.156 236.662L301.808 235.501L300.799 238.419L300.92 238.451C301.076 238.262 301.241 238.095 301.415 237.949C301.591 237.794 301.781 237.676 301.985 237.596C302.191 237.507 302.416 237.456 302.66 237.445C302.903 237.433 303.169 237.465 303.456 237.542C303.842 237.645 304.187 237.809 304.492 238.035C304.806 238.263 305.059 238.541 305.249 238.871C305.451 239.194 305.579 239.565 305.63 239.982C305.685 240.391 305.65 240.829 305.525 241.295C305.398 241.771 305.2 242.189 304.931 242.55C304.661 242.91 304.33 243.197 303.937 243.409C303.553 243.624 303.109 243.755 302.606 243.804C302.105 243.843 301.563 243.785 300.98 243.629C300.522 243.507 300.127 243.349 299.795 243.154C299.462 242.96 299.178 242.745 298.943 242.509C298.719 242.266 298.533 242.01 298.384 241.74C298.247 241.462 298.137 241.188 298.056 240.917L299.832 240.151C299.892 240.359 299.959 240.559 300.032 240.752C300.115 240.947 300.215 241.128 300.334 241.294C300.465 241.454 300.615 241.595 300.784 241.717C300.965 241.832 301.181 241.924 301.432 241.991C301.934 242.125 302.347 242.091 302.67 241.889C303.005 241.68 303.233 241.347 303.355 240.889L303.384 240.781C303.501 240.342 303.463 239.961 303.27 239.641C303.077 239.32 302.752 239.099 302.294 238.976C301.917 238.876 301.583 238.868 301.291 238.954C301.01 239.033 300.788 239.127 300.624 239.237L299.029 238.566L300.798 233.343L306.627 234.899L306.156 236.662Z" fill="white"/>
<path d="M333.862 122.556C342.845 124.954 352.111 119.626 354.508 110.643C356.906 101.661 351.528 92.4241 342.545 90.0264L333.862 122.556Z" fill="white"/>
<path d="M340.345 98.2672C344.726 99.4366 347.318 103.977 346.135 108.409C344.953 112.84 340.442 115.485 336.062 114.315L340.345 98.2672Z" fill="#CACACA"/>
<path d="M340.345 98.2672C335.721 97.0329 331.013 99.6248 329.83 104.056C328.648 108.488 331.437 113.081 336.062 114.315L340.345 98.2672Z" fill="white" fill-opacity="0.51"/>
<path d="M264.282 82.4332L262.322 89.7754L263.599 90.116L264.948 85.0611L265.016 85.0793L265.702 90.6543L266.655 90.9089L270.025 86.4278L270.093 86.446L268.747 91.4902L270.023 91.8308L271.983 84.4886L270.355 84.0542L266.755 88.7926L266.669 88.7696L265.91 82.8676L264.282 82.4332ZM277.005 85.8291L275.675 85.4741L273.715 92.8162L275.045 93.1713L277.005 85.8291ZM284.14 89.8958L285.42 90.2374C285.726 88.9903 284.903 87.8297 283.34 87.4124C281.798 87.001 280.408 87.5595 280.066 88.8582C279.784 89.9122 280.372 90.7181 281.497 91.3525L282.275 91.7905C283.013 92.2028 283.471 92.5899 283.322 93.1608C283.151 93.7873 282.444 94.0479 281.576 93.8163C280.745 93.5943 280.199 93.0492 280.351 92.264L279.042 91.9148C278.707 93.3882 279.574 94.4992 281.284 94.9556C283.044 95.4255 284.3 94.8199 284.649 93.5266C284.985 92.253 284.09 91.3918 283.056 90.8354L282.413 90.4795C281.849 90.1754 281.265 89.7467 281.436 89.1356C281.587 88.5844 282.189 88.3114 283.021 88.5334C283.813 88.7448 284.238 89.2538 284.14 89.8958ZM287.528 96.5033L292.092 97.7215L292.39 96.6066L289.156 95.7434L290.818 89.5162L289.488 89.1612L287.528 96.5033ZM296.709 98.9538L297.798 97.3051L300.558 98.0419L300.685 100.015L302.104 100.394L301.476 92.3609L299.834 91.9226L295.289 98.5749L296.709 98.9538ZM298.442 96.3324L300.224 93.6398L300.281 93.6551L300.485 96.8779L298.442 96.3324ZM313.308 95.5193L311.985 95.1662L310.649 100.171L310.585 100.154L308.465 94.2265L307.275 93.9088L305.315 101.251L306.645 101.606L307.98 96.6048L308.041 96.6211L310.165 102.546L311.348 102.861L313.308 95.5193ZM317.529 104.511C319.766 105.108 321.462 104.079 322.075 101.784C322.685 99.4969 321.726 97.7661 319.539 97.1824L317.001 96.5049L315.041 103.847L317.529 104.511ZM316.678 103.051L318.024 98.0107L319.157 98.3131C320.648 98.7112 321.204 99.7506 320.755 101.432C320.305 103.121 319.303 103.752 317.772 103.343L316.678 103.051Z" fill="#FAFAFA"/>
<path d="M89.3532 32.3448L79.2578 45.4132L75.2336 44.3391L75.3337 31.7843C75.342 31.0127 75.2537 30.7052 74.7735 30.2511C73.9913 29.5103 72.604 28.6416 71.3525 27.9963L71.5565 27.5945L78.0345 29.3236C78.4579 29.4361 78.8272 29.6964 79.0756 30.0573C79.324 30.4182 79.4352 30.856 79.3891 31.2917L78.7199 40.2354L85.3546 31.2775L89.3532 32.3448ZM102.477 46.4651C103.529 42.5845 98.1998 40.9327 98.7003 39.2074C98.8531 38.6825 99.5054 38.2552 100.643 38.4053C101.964 38.6268 103.201 39.201 104.222 40.0672L105.723 37.1242C104.698 36.3922 103.552 35.849 102.336 35.52C98.5732 34.5156 95.3906 35.811 94.6026 38.6688C94.0137 40.7806 95.6127 42.4712 96.8669 43.563C98.1586 44.6796 98.5336 45.2759 98.3539 45.9177C98.08 46.9044 96.7923 47.0255 95.6922 46.7507C93.7704 46.2693 92.8069 45.4276 92.0297 44.7785L90.4803 47.8178C91.2606 48.4635 92.8063 49.2588 94.504 49.7288C98.5027 50.7961 101.647 49.5198 102.477 46.4651ZM111.129 53.9204L114.651 54.8604L115.506 39.3256L112.256 38.4579C111.909 38.362 111.542 38.3724 111.201 38.4877C110.861 38.6031 110.563 38.818 110.346 39.1048L100.996 51.2157L104.993 52.2825L106.375 50.2961L111.259 51.5997L111.129 53.9204ZM108.275 47.5733L111.752 42.5818L111.431 48.4158L108.275 47.5733ZM94.7927 33.7967L87.7183 47.6715L83.9101 46.655L90.9884 32.7812L94.7927 33.7967Z" fill="white"/>
<rect x="59.0688" y="79.5083" width="26.1942" height="19.8364" rx="3.8147" transform="rotate(14.945 59.0688 79.5083)" fill="url(#paint1_linear_0_177)" stroke="#666666" stroke-width="0.508626"/>
<path fill-rule="evenodd" clip-rule="evenodd" d="M74.2618 87.921C73.8502 85.9248 72.8341 84.1724 72.0671 83.3888C72.0162 83.3379 71.9876 83.2688 71.9875 83.1968C71.9875 83.1247 72.0161 83.0557 72.0671 83.0047C72.118 82.9538 72.1871 82.9251 72.2591 82.9251C72.3312 82.9251 72.4003 82.9537 72.4512 83.0046C73.458 84.0232 74.4168 85.9997 74.7891 87.7987C74.8001 87.8342 74.8033 87.8716 74.7982 87.9085C74.7932 87.9453 74.7802 87.9806 74.7601 88.0119C74.7399 88.0431 74.7132 88.0696 74.6817 88.0894C74.6503 88.1091 74.6148 88.1218 74.5779 88.1264C74.5374 88.1361 74.495 88.1356 74.4546 88.1251C74.4067 88.1123 74.3633 88.0865 74.3292 88.0505C74.2952 88.0144 74.2718 87.9696 74.2618 87.921ZM64.03 94.2168C63.3956 96.6626 64.9151 100.186 66.2456 101.549C66.2719 101.573 66.2928 101.602 66.307 101.635C66.3212 101.667 66.3284 101.703 66.328 101.738C66.3277 101.774 66.3199 101.809 66.3051 101.842C66.2903 101.874 66.2688 101.903 66.2421 101.927C66.2086 101.959 66.1673 101.982 66.1222 101.994C66.0771 102.006 66.0297 102.006 65.9845 101.995C65.9385 101.982 65.8968 101.958 65.8642 101.923C64.4424 100.478 62.91 96.954 63.4575 94.3113L55.682 92.2359C55.6194 92.2124 55.5676 92.1665 55.537 92.107C55.5063 92.0475 55.4989 91.9787 55.5161 91.914C55.5334 91.8494 55.5741 91.7934 55.6304 91.7571C55.6866 91.7208 55.7543 91.7068 55.8204 91.7177L63.645 93.8062C64.5935 92.2194 65.0794 90.399 65.0478 88.5505L57.2232 86.462C57.1548 86.4437 57.0965 86.399 57.061 86.3378C57.0256 86.2765 57.0159 86.2037 57.0342 86.1353C57.0524 86.0669 57.0971 86.0085 57.1584 85.9731C57.2197 85.9376 57.2925 85.928 57.3609 85.9462L65.1364 88.0217C65.9812 85.4479 69.0732 83.1687 71.0161 82.6218C71.0856 82.603 71.1598 82.6127 71.2222 82.6486C71.2847 82.6845 71.3303 82.7437 71.3491 82.8133C71.3678 82.8828 71.3582 82.957 71.3223 83.0194C71.2864 83.0819 71.2271 83.1275 71.1576 83.1463C69.3282 83.6525 66.2544 85.9523 65.5849 88.3913C65.64 90.4426 65.1 92.4659 64.03 94.2168ZM81.1042 98.467L73.2648 96.3745C73.2332 94.5261 73.7191 92.7057 74.6677 91.1188L82.507 93.2113C82.5754 93.2296 82.6483 93.2199 82.7095 93.1845C82.7708 93.149 82.8155 93.0907 82.8337 93.0223C82.852 92.9539 82.8423 92.881 82.8069 92.8198C82.7714 92.7585 82.7131 92.7138 82.6447 92.6956L74.6064 90.55C74.5503 90.5357 74.4911 90.54 74.4377 90.5623C74.3843 90.5846 74.3396 90.6236 74.3103 90.6735C73.2282 92.436 72.6837 94.4759 72.7436 96.5432C72.0748 98.9798 69.0017 101.277 67.169 101.796C67.1336 101.802 67.1001 101.816 67.0706 101.837C67.0411 101.858 67.0163 101.884 66.9979 101.915C66.9794 101.946 66.9678 101.98 66.9636 102.016C66.9595 102.052 66.963 102.088 66.9739 102.122C66.9867 102.167 67.0109 102.208 67.0441 102.241C67.0772 102.274 67.1183 102.297 67.1633 102.31C67.2092 102.322 67.2577 102.321 67.3033 102.308C69.2429 101.773 72.3407 99.4718 73.183 96.9078L80.9658 98.9852C81.0319 98.9961 81.0996 98.9821 81.1559 98.9458C81.2121 98.9095 81.2528 98.8535 81.2701 98.7889C81.2873 98.7242 81.2799 98.6554 81.2492 98.5959C81.2186 98.5364 81.1668 98.4905 81.1042 98.467ZM71.1017 84.1513C71.1911 84.1209 71.2876 84.1176 71.3789 84.142C71.5014 84.1747 71.6059 84.2547 71.6693 84.3644C71.7328 84.4741 71.7501 84.6045 71.7174 84.727C71.693 84.8183 71.6421 84.9003 71.5711 84.9627C71.5001 85.0251 71.4122 85.065 71.3185 85.0774C71.2248 85.0899 71.1296 85.0742 71.0448 85.0325C70.9599 84.9908 70.8894 84.9249 70.8421 84.8431C70.7947 84.7612 70.7727 84.6672 70.7788 84.5729C70.7849 84.4786 70.8188 84.3882 70.8763 84.3132C70.9338 84.2381 71.0122 84.1818 71.1017 84.1513Z" fill="#666666"/>
<mask id="mask0_0_177" style="mask-type:luminance" maskUnits="userSpaceOnUse" x="98" y="149" width="446" height="312">
<rect x="98" y="199.544" width="416.487" height="262.978" transform="rotate(-6.946 98 199.544)" fill="white"/>
</mask>
<g mask="url(#mask0_0_177)">
<rect x="101.205" y="198.365" width="403.259" height="254.626" rx="30" transform="rotate(-6.946 101.205 198.365)" fill="url(#paint2_linear_0_177)"/>
</g>
<path d="M424.187 215.474C433.871 214.294 440.809 205.481 439.629 195.796C438.449 186.112 429.599 179.222 419.914 180.402L424.187 215.474Z" fill="white"/>
<path d="M420.996 189.287C425.719 188.711 430.02 192.118 430.602 196.896C431.184 201.674 427.827 206.013 423.104 206.589L420.996 189.287Z" fill="#CACACA"/>
<path d="M420.996 189.287C416.011 189.894 412.441 194.26 413.023 199.038C413.605 203.815 418.119 207.196 423.104 206.589L420.996 189.287Z" fill="white" fill-opacity="0.51"/>
<path d="M340.68 203.142L341.644 211.057L343.02 210.89L342.356 205.44L342.43 205.431L345.279 210.591L346.307 210.466L347.835 204.784L347.908 204.775L348.571 210.214L349.947 210.046L348.982 202.13L347.227 202.344L345.576 208.366L345.483 208.377L342.435 202.928L340.68 203.142ZM354.396 201.47L352.963 201.645L353.927 209.561L355.361 209.386L354.396 201.47ZM362.935 202.639L364.315 202.471C364.125 201.136 362.869 200.328 361.184 200.534C359.522 200.736 358.388 201.824 358.562 203.222C358.7 204.359 359.588 204.914 360.931 205.091L361.86 205.213C362.741 205.326 363.338 205.524 363.416 206.138C363.495 206.815 362.908 207.345 361.973 207.459C361.076 207.568 360.331 207.251 360.172 206.427L358.761 206.599C359.011 208.165 360.29 208.907 362.134 208.683C364.032 208.452 365.018 207.37 364.852 205.975C364.681 204.603 363.472 204.115 362.247 203.978L361.482 203.883C360.814 203.807 360.077 203.618 360.004 202.956C359.936 202.361 360.416 201.859 361.313 201.75C362.167 201.646 362.78 201.975 362.935 202.639ZM368.82 207.747L373.74 207.147L373.593 205.945L370.107 206.37L369.289 199.656L367.855 199.831L368.82 207.747ZM378.717 206.541L379.133 204.509L382.109 204.147L383.004 206.019L384.534 205.832L380.779 198.256L379.009 198.472L377.187 206.727L378.717 206.541ZM379.379 203.31L380.061 199.991L380.123 199.984L381.582 203.042L379.379 203.31ZM393.536 196.702L392.11 196.876L392.768 202.272L392.698 202.28L388.315 197.338L387.031 197.495L387.996 205.41L389.43 205.236L388.773 199.844L388.839 199.836L393.225 204.773L394.501 204.618L393.536 196.702ZM401.164 203.806C403.576 203.512 404.825 201.846 404.523 199.372C404.223 196.906 402.612 195.596 400.254 195.884L397.518 196.217L398.482 204.133L401.164 203.806ZM399.765 202.718L399.103 197.283L400.324 197.134C401.932 196.938 402.88 197.733 403.101 199.546C403.323 201.366 402.594 202.373 400.944 202.574L399.765 202.718Z" fill="#FAFAFA"/>
<path d="M277.594 372.403L270.831 373.227L270.679 371.979L273.689 368.519C274.128 368.014 274.479 367.51 274.742 367.007C275.003 366.494 275.102 365.976 275.039 365.454L275.017 365.279C274.943 364.67 274.726 364.22 274.367 363.93C274.006 363.63 273.512 363.519 272.883 363.595C272.264 363.671 271.804 363.889 271.504 364.249C271.213 364.599 271.017 365.045 270.916 365.588L269.778 365.314C269.839 365.002 269.934 364.696 270.064 364.395C270.203 364.084 270.389 363.801 270.624 363.547C270.858 363.292 271.15 363.075 271.501 362.895C271.862 362.713 272.289 362.593 272.783 362.532C273.286 362.471 273.74 362.489 274.144 362.587C274.559 362.684 274.912 362.847 275.206 363.077C275.508 363.305 275.749 363.59 275.928 363.931C276.117 364.272 276.237 364.655 276.289 365.08C276.336 365.467 276.322 365.837 276.248 366.19C276.182 366.542 276.067 366.884 275.902 367.219C275.746 367.552 275.546 367.886 275.302 368.22C275.066 368.543 274.797 368.87 274.494 369.202L271.964 372.014L277.465 371.344L277.594 372.403ZM286.295 371.343L279.533 372.167L279.381 370.919L282.391 367.459C282.83 366.954 283.181 366.45 283.443 365.947C283.705 365.434 283.804 364.916 283.74 364.393L283.719 364.219C283.645 363.61 283.428 363.16 283.069 362.87C282.708 362.57 282.213 362.459 281.585 362.535C280.965 362.611 280.506 362.829 280.206 363.189C279.915 363.539 279.719 363.985 279.618 364.527L278.48 364.254C278.54 363.942 278.636 363.636 278.766 363.335C278.905 363.024 279.091 362.741 279.325 362.487C279.559 362.232 279.852 362.015 280.203 361.835C280.564 361.653 280.991 361.532 281.485 361.472C281.988 361.411 282.441 361.429 282.846 361.527C283.261 361.624 283.614 361.787 283.907 362.017C284.21 362.245 284.451 362.53 284.63 362.871C284.819 363.211 284.939 363.594 284.991 364.02C285.038 364.407 285.024 364.777 284.949 365.13C284.884 365.481 284.769 365.824 284.603 366.159C284.448 366.492 284.248 366.826 284.004 367.16C283.768 367.483 283.499 367.81 283.195 368.142L280.666 370.954L286.166 370.284L286.295 371.343ZM288.754 373.076L292.217 359.428L293.262 359.301L289.799 372.949L288.754 373.076ZM300.281 369.816C299.661 369.891 299.115 369.84 298.642 369.662C298.167 369.474 297.758 369.176 297.413 368.766C297.069 368.356 296.789 367.836 296.575 367.204C296.361 366.572 296.203 365.84 296.101 365.008C296.001 364.186 295.979 363.442 296.036 362.778C296.091 362.103 296.237 361.526 296.473 361.045C296.709 360.565 297.035 360.182 297.452 359.895C297.868 359.599 298.385 359.413 299.004 359.338C299.623 359.263 300.17 359.319 300.645 359.506C301.118 359.684 301.527 359.978 301.871 360.388C302.216 360.797 302.496 361.323 302.711 361.964C302.926 362.596 303.083 363.323 303.183 364.146C303.285 364.978 303.307 365.726 303.251 366.391C303.194 367.055 303.048 367.628 302.812 368.108C302.576 368.589 302.25 368.977 301.835 369.273C301.418 369.56 300.9 369.74 300.281 369.816ZM300.152 368.756C300.558 368.707 300.897 368.587 301.168 368.397C301.438 368.197 301.643 367.942 301.782 367.63C301.93 367.317 302.023 366.953 302.061 366.536C302.097 366.109 302.084 365.639 302.022 365.127L301.82 363.472C301.759 362.969 301.659 362.515 301.521 362.109C301.384 361.704 301.205 361.367 300.986 361.099C300.777 360.83 300.517 360.636 300.208 360.517C299.898 360.388 299.54 360.348 299.133 360.397C298.727 360.447 298.389 360.572 298.118 360.771C297.847 360.962 297.637 361.213 297.489 361.526C297.35 361.837 297.262 362.206 297.226 362.633C297.189 363.059 297.202 363.524 297.263 364.027L297.465 365.682C297.527 366.194 297.627 366.654 297.765 367.059C297.902 367.455 298.075 367.787 298.284 368.056C298.503 368.324 298.768 368.522 299.078 368.652C299.387 368.771 299.745 368.806 300.152 368.756ZM299.747 365.433C299.408 365.474 299.163 365.436 299.011 365.317C298.869 365.196 298.786 365.04 298.762 364.846L298.723 364.527C298.7 364.333 298.742 364.161 298.852 364.01C298.971 363.859 299.199 363.762 299.538 363.721C299.877 363.679 300.117 363.719 300.259 363.839C300.411 363.958 300.499 364.114 300.523 364.308L300.562 364.627C300.585 364.82 300.537 364.993 300.419 365.145C300.309 365.296 300.085 365.392 299.747 365.433ZM305.841 368.962L305.712 367.902L308.614 367.549L307.619 359.378L307.517 359.391L305.253 362.082L304.448 361.399L306.827 358.562L308.728 358.33L309.833 367.4L312.504 367.075L312.633 368.134L305.841 368.962Z" fill="white"/>
<path d="M153.846 377.2L156.676 376.855C157.914 376.704 158.89 377.017 159.603 377.794C160.317 378.571 160.775 379.797 160.979 381.471C161.183 383.144 161.032 384.444 160.526 385.37C160.02 386.295 159.148 386.834 157.91 386.984L155.08 387.329L153.846 377.2ZM157.723 385.932C158.535 385.833 159.111 385.478 159.449 384.868C159.796 384.256 159.908 383.437 159.783 382.412L159.592 380.844C159.467 379.819 159.162 379.051 158.678 378.54C158.203 378.029 157.56 377.822 156.747 377.921L155.194 378.11L156.17 386.121L157.723 385.932ZM168.135 375.459L169.049 382.962C169.101 383.387 169.075 383.783 168.973 384.149C168.87 384.515 168.698 384.836 168.457 385.11C168.225 385.384 167.933 385.611 167.582 385.791C167.23 385.962 166.836 386.074 166.401 386.127C165.627 386.221 164.964 386.1 164.413 385.765C163.86 385.42 163.462 384.894 163.219 384.187L164.35 383.799C164.423 383.997 164.509 384.182 164.609 384.357C164.717 384.52 164.848 384.662 165 384.78C165.16 384.889 165.347 384.969 165.559 385.022C165.772 385.074 166.018 385.083 166.299 385.049C166.85 384.982 167.257 384.775 167.519 384.429C167.79 384.072 167.885 383.56 167.803 382.892L167.045 376.667L163.388 377.112L163.259 376.053L168.135 375.459ZM175.474 384.977C175.078 385.025 174.787 384.977 174.603 384.833C174.428 384.687 174.325 384.489 174.294 384.237L174.263 383.976C174.232 383.724 174.284 383.507 174.419 383.324C174.563 383.139 174.834 383.023 175.23 382.974C175.627 382.926 175.913 382.975 176.088 383.12C176.272 383.265 176.38 383.463 176.41 383.714L176.442 383.976C176.473 384.227 176.416 384.445 176.272 384.63C176.137 384.813 175.871 384.929 175.474 384.977ZM186.787 383.466L185.579 380.683L182.023 381.116L181.519 384.108L180.256 384.262L182.128 373.754L183.739 373.558L188.079 383.309L186.787 383.466ZM183.142 374.941L183.011 374.957L182.185 380.021L185.16 379.659L183.142 374.941ZM189.829 374.392L189.727 374.404L190.772 382.981L189.669 383.115L188.435 372.986L190.162 372.775L194.65 380.844L194.752 380.832L193.718 372.342L194.821 372.208L196.055 382.337L194.328 382.548L189.829 374.392ZM197.355 371.899L200.185 371.554C201.423 371.403 202.399 371.716 203.112 372.494C203.825 373.271 204.284 374.496 204.488 376.17C204.692 377.844 204.541 379.143 204.035 380.069C203.529 380.995 202.657 381.533 201.419 381.684L198.589 382.029L197.355 371.899ZM201.232 380.632C202.044 380.532 202.62 380.178 202.958 379.567C203.305 378.955 203.417 378.137 203.292 377.111L203.101 375.544C202.976 374.518 202.671 373.75 202.187 373.24C201.712 372.728 201.068 372.522 200.256 372.621L198.703 372.81L199.679 380.821L201.232 380.632ZM207.218 380.977L205.984 370.848L212.224 370.087L212.353 371.147L207.332 371.759L207.747 375.169L212.595 374.578L212.724 375.638L207.877 376.228L208.308 379.769L213.329 379.158L213.458 380.217L207.218 380.977ZM217.139 379.769L215.92 379.917L214.686 369.788L218.372 369.338C219.31 369.224 220.057 369.393 220.613 369.846C221.169 370.299 221.503 370.985 221.615 371.904C221.715 372.726 221.583 373.41 221.217 373.955C220.851 374.5 220.267 374.861 219.464 375.038L222.581 379.106L221.217 379.272L218.223 375.248L216.612 375.444L217.139 379.769ZM218.924 374.117C219.437 374.054 219.819 373.88 220.068 373.594C220.327 373.298 220.427 372.912 220.369 372.438L220.278 371.684C220.22 371.21 220.03 370.864 219.71 370.648C219.397 370.421 218.985 370.339 218.472 370.401L216.034 370.698L216.486 374.414L218.924 374.117ZM227.661 378.663C226.752 378.774 225.987 378.701 225.366 378.442C224.744 378.174 224.213 377.802 223.772 377.326L224.569 376.492C225.026 376.937 225.487 377.254 225.951 377.443C226.426 377.631 226.968 377.688 227.577 377.613C228.313 377.524 228.853 377.286 229.199 376.9C229.545 376.514 229.681 376.017 229.606 375.407C229.546 374.914 229.359 374.549 229.046 374.312C228.731 374.066 228.218 373.927 227.507 373.896L226.353 373.845C225.849 373.818 225.417 373.738 225.057 373.605C224.707 373.471 224.415 373.295 224.183 373.078C223.949 372.852 223.771 372.598 223.648 372.319C223.525 372.029 223.443 371.725 223.404 371.406C223.291 370.477 223.511 369.738 224.062 369.19C224.614 368.642 225.408 368.305 226.443 368.178C227.255 368.079 227.954 368.132 228.539 368.336C229.133 368.538 229.629 368.865 230.028 369.318L229.262 370.162C228.936 369.829 228.561 369.57 228.136 369.386C227.711 369.202 227.184 369.149 226.556 369.225C225.869 369.309 225.359 369.518 225.027 369.853C224.694 370.188 224.564 370.646 224.634 371.227C224.69 371.681 224.871 372.037 225.177 372.294C225.492 372.541 226.015 372.683 226.746 372.722L227.857 372.778C228.361 372.805 228.793 372.885 229.153 373.018C229.513 373.151 229.809 373.326 230.042 373.543C230.284 373.759 230.467 374.011 230.591 374.301C230.714 374.59 230.796 374.899 230.836 375.228C230.951 376.166 230.731 376.94 230.176 377.547C229.632 378.153 228.793 378.526 227.661 378.663ZM236.392 377.6C235.773 377.675 235.227 377.624 234.753 377.446C234.279 377.258 233.869 376.96 233.525 376.55C233.18 376.14 232.901 375.62 232.686 374.988C232.472 374.356 232.314 373.624 232.213 372.792C232.113 371.97 232.091 371.226 232.147 370.562C232.202 369.887 232.348 369.31 232.584 368.829C232.82 368.349 233.147 367.966 233.563 367.679C233.979 367.383 234.496 367.197 235.115 367.122C235.735 367.046 236.282 367.103 236.756 367.29C237.229 367.468 237.638 367.762 237.983 368.172C238.327 368.581 238.607 369.107 238.823 369.748C239.037 370.38 239.195 371.107 239.295 371.929C239.396 372.762 239.419 373.51 239.362 374.175C239.306 374.839 239.159 375.412 238.923 375.892C238.687 376.373 238.362 376.761 237.946 377.057C237.529 377.343 237.011 377.524 236.392 377.6ZM236.263 376.54C236.669 376.491 237.003 376.372 237.265 376.183C237.526 375.984 237.73 375.728 237.879 375.416C238.027 375.103 238.115 374.739 238.143 374.323C238.179 373.897 238.166 373.427 238.104 372.914L237.902 371.26C237.841 370.757 237.742 370.302 237.604 369.897C237.476 369.49 237.302 369.153 237.083 368.885C236.864 368.617 236.604 368.423 236.305 368.302C236.004 368.172 235.651 368.132 235.245 368.181C234.838 368.231 234.505 368.355 234.244 368.554C233.983 368.743 233.777 368.993 233.629 369.306C233.481 369.619 233.388 369.988 233.352 370.415C233.325 370.84 233.342 371.305 233.404 371.808L233.605 373.462C233.668 373.975 233.763 374.435 233.891 374.841C234.028 375.237 234.205 375.569 234.425 375.837C234.644 376.104 234.904 376.303 235.204 376.434C235.504 376.554 235.857 376.59 236.263 376.54ZM242.039 368.031L241.938 368.043L242.983 376.62L241.88 376.755L240.646 366.625L242.373 366.415L246.861 374.483L246.963 374.471L245.928 365.981L247.031 365.847L248.265 375.977L246.538 376.187L242.039 368.031Z" fill="white"/>
<path d="M259.379 376.654L257.792 363.621L258.808 363.498L260.395 376.53L259.379 376.654Z" fill="white"/>
<path d="M153.846 348.382C153.236 348.456 152.678 348.431 152.172 348.306C151.674 348.17 151.24 347.948 150.869 347.64C150.496 347.322 150.193 346.927 149.958 346.455C149.724 345.982 149.57 345.442 149.496 344.832C149.41 344.126 149.439 343.445 149.585 342.789C149.73 342.123 149.944 341.503 150.228 340.928C150.52 340.343 150.857 339.811 151.241 339.332C151.634 338.852 152.031 338.441 152.431 338.097L155.435 337.731C154.859 338.243 154.344 338.733 153.891 339.201C153.445 339.658 153.059 340.112 152.731 340.564C152.412 341.006 152.157 341.454 151.967 341.909C151.787 342.363 151.674 342.844 151.627 343.35L151.763 343.378C151.827 343.173 151.91 342.972 152.013 342.773C152.117 342.574 152.252 342.395 152.42 342.237C152.586 342.07 152.784 341.928 153.016 341.811C153.257 341.693 153.542 341.615 153.87 341.574C154.296 341.523 154.702 341.552 155.089 341.662C155.474 341.762 155.814 341.937 156.11 342.185C156.414 342.423 156.667 342.726 156.869 343.094C157.071 343.462 157.201 343.888 157.26 344.372C157.322 344.885 157.288 345.37 157.157 345.828C157.027 346.286 156.811 346.695 156.512 347.055C156.221 347.405 155.848 347.696 155.396 347.928C154.943 348.16 154.426 348.311 153.846 348.382ZM153.624 346.686C154.147 346.622 154.527 346.438 154.765 346.134C155.001 345.821 155.089 345.412 155.028 344.909L155.003 344.706C154.942 344.203 154.755 343.838 154.443 343.611C154.139 343.373 153.73 343.285 153.218 343.348C152.724 343.408 152.354 343.59 152.106 343.895C151.857 344.191 151.764 344.59 151.825 345.093L151.85 345.296C151.911 345.799 152.089 346.175 152.385 346.424C152.689 346.662 153.102 346.749 153.624 346.686ZM171.006 346.114L163.721 347.002L163.479 345.014L166.348 341.969C166.842 341.428 167.188 340.968 167.388 340.59C167.587 340.213 167.663 339.83 167.616 339.443L167.598 339.298C167.547 338.872 167.382 338.569 167.104 338.386C166.826 338.194 166.474 338.124 166.048 338.176C165.564 338.235 165.209 338.421 164.982 338.733C164.755 339.046 164.612 339.402 164.552 339.802L162.563 339.308C162.636 338.945 162.756 338.597 162.921 338.263C163.086 337.919 163.308 337.612 163.59 337.342C163.881 337.071 164.226 336.842 164.626 336.656C165.024 336.46 165.494 336.329 166.036 336.263C166.587 336.196 167.09 336.213 167.544 336.315C167.999 336.417 168.392 336.585 168.725 336.819C169.058 337.054 169.325 337.35 169.526 337.708C169.725 338.057 169.851 338.449 169.904 338.885C169.956 339.31 169.932 339.711 169.83 340.087C169.737 340.451 169.584 340.804 169.37 341.144C169.166 341.483 168.912 341.819 168.609 342.15C168.315 342.48 167.997 342.814 167.655 343.15L165.907 344.88L170.783 344.286L171.006 346.114ZM177.855 345.28L177.641 343.524L180.37 343.192L179.542 336.4L179.412 336.416L177.68 339.366L176.154 338.447L178.188 334.959L181.526 334.553L182.546 342.926L184.694 342.665L184.908 344.421L177.855 345.28ZM197.421 336.519C197.508 337.235 197.479 337.921 197.333 338.577C197.187 339.233 196.968 339.854 196.676 340.439C196.392 341.014 196.054 341.541 195.661 342.021C195.277 342.5 194.886 342.911 194.486 343.254L191.481 343.62C192.057 343.108 192.568 342.623 193.013 342.167C193.466 341.699 193.853 341.245 194.172 340.803C194.5 340.351 194.754 339.898 194.934 339.444C195.124 338.988 195.243 338.508 195.289 338.001L195.153 337.974C195.09 338.178 195.001 338.38 194.888 338.58C194.785 338.779 194.65 338.963 194.484 339.13C194.326 339.287 194.127 339.424 193.886 339.542C193.655 339.658 193.375 339.737 193.046 339.777C192.62 339.829 192.214 339.804 191.829 339.704C191.443 339.594 191.097 339.42 190.794 339.182C190.498 338.933 190.249 338.625 190.048 338.257C189.846 337.889 189.715 337.463 189.656 336.979C189.594 336.466 189.628 335.981 189.759 335.523C189.889 335.066 190.1 334.662 190.392 334.312C190.691 333.952 191.068 333.655 191.521 333.423C191.973 333.192 192.49 333.04 193.071 332.97C193.68 332.895 194.234 332.926 194.731 333.062C195.237 333.187 195.677 333.408 196.049 333.726C196.421 334.034 196.724 334.424 196.958 334.897C197.192 335.369 197.346 335.91 197.421 336.519ZM193.699 338.004C194.192 337.943 194.563 337.766 194.812 337.47C195.059 337.165 195.153 336.761 195.091 336.258L195.067 336.055C195.005 335.552 194.823 335.181 194.519 334.943C194.223 334.695 193.814 334.602 193.292 334.666C192.77 334.729 192.39 334.918 192.153 335.232C191.915 335.535 191.827 335.939 191.888 336.442L191.913 336.645C191.974 337.148 192.157 337.519 192.461 337.757C192.773 337.984 193.186 338.066 193.699 338.004ZM235.023 338.492C234.413 338.566 233.863 338.56 233.371 338.472C232.878 338.375 232.451 338.216 232.09 337.995C231.73 337.774 231.44 337.495 231.223 337.158C231.013 336.811 230.883 336.424 230.831 335.998C230.751 335.34 230.875 334.79 231.204 334.347C231.532 333.895 231.981 333.551 232.551 333.314L232.537 333.198C232.011 333.076 231.566 332.845 231.201 332.507C230.836 332.168 230.617 331.704 230.545 331.114C230.498 330.727 230.532 330.36 230.646 330.012C230.761 329.664 230.954 329.356 231.226 329.087C231.496 328.809 231.842 328.58 232.262 328.401C232.681 328.213 233.175 328.084 233.746 328.014C234.307 327.946 234.814 327.953 235.266 328.035C235.726 328.107 236.121 328.245 236.45 328.451C236.779 328.646 237.04 328.899 237.235 329.209C237.43 329.519 237.551 329.868 237.598 330.255C237.67 330.845 237.569 331.348 237.296 331.764C237.023 332.181 236.646 332.511 236.165 332.756L236.179 332.872C236.789 332.965 237.308 333.191 237.735 333.552C238.16 333.903 238.413 334.407 238.493 335.065C238.545 335.49 238.506 335.898 238.377 336.287C238.256 336.665 238.047 337.004 237.75 337.306C237.453 337.607 237.077 337.864 236.622 338.076C236.165 338.279 235.632 338.418 235.023 338.492ZM234.819 336.823C235.323 336.762 235.691 336.599 235.923 336.335C236.166 336.07 236.263 335.739 236.215 335.342L236.18 335.052C236.13 334.646 235.961 334.347 235.673 334.157C235.383 333.956 234.982 333.887 234.469 333.95C233.957 334.012 233.584 334.175 233.351 334.439C233.117 334.694 233.024 335.024 233.074 335.43L233.109 335.721C233.158 336.117 233.327 336.416 233.616 336.616C233.915 336.815 234.316 336.884 234.819 336.823ZM234.275 332.353C234.759 332.294 235.113 332.138 235.337 331.885C235.562 331.632 235.651 331.317 235.605 330.939L235.578 330.722C235.532 330.344 235.366 330.065 235.079 329.884C234.8 329.692 234.424 329.625 233.95 329.683C233.476 329.741 233.121 329.897 232.887 330.151C232.662 330.395 232.572 330.705 232.618 331.082L232.644 331.3C232.69 331.677 232.853 331.962 233.131 332.154C233.41 332.346 233.791 332.412 234.275 332.353ZM248.62 336.836C248.011 336.91 247.453 336.884 246.947 336.76C246.449 336.624 246.014 336.402 245.643 336.094C245.27 335.776 244.967 335.381 244.733 334.908C244.499 334.436 244.344 333.895 244.27 333.286C244.184 332.58 244.214 331.898 244.36 331.243C244.505 330.577 244.719 329.957 245.002 329.382C245.294 328.797 245.632 328.265 246.015 327.786C246.408 327.306 246.805 326.894 247.205 326.551L250.209 326.185C249.633 326.697 249.119 327.187 248.665 327.655C248.22 328.111 247.833 328.566 247.506 329.018C247.186 329.46 246.932 329.908 246.742 330.363C246.561 330.817 246.448 331.297 246.402 331.804L246.538 331.831C246.601 331.627 246.685 331.426 246.788 331.227C246.891 331.027 247.027 330.849 247.194 330.691C247.36 330.524 247.559 330.381 247.79 330.265C248.031 330.147 248.316 330.068 248.645 330.028C249.071 329.976 249.477 330.005 249.863 330.115C250.249 330.216 250.589 330.39 250.884 330.639C251.188 330.877 251.441 331.18 251.643 331.548C251.845 331.916 251.975 332.342 252.034 332.826C252.097 333.339 252.063 333.824 251.932 334.282C251.801 334.74 251.586 335.149 251.286 335.509C250.995 335.859 250.623 336.15 250.17 336.382C249.717 336.613 249.201 336.765 248.62 336.836ZM248.399 335.139C248.921 335.076 249.301 334.892 249.539 334.588C249.776 334.274 249.864 333.866 249.802 333.363L249.778 333.16C249.716 332.657 249.529 332.292 249.217 332.065C248.913 331.827 248.505 331.739 247.992 331.801C247.499 331.862 247.128 332.044 246.881 332.349C246.632 332.645 246.538 333.044 246.599 333.547L246.624 333.75C246.685 334.253 246.864 334.629 247.159 334.878C247.463 335.116 247.876 335.203 248.399 335.139ZM259.09 335.383L258.876 333.627L261.605 333.295L260.777 326.503L260.647 326.519L258.915 329.469L257.389 328.551L259.424 325.063L262.762 324.656L263.782 333.03L265.93 332.768L266.143 334.524L259.09 335.383ZM275.64 333.544C274.286 333.709 273.229 333.371 272.468 332.531C271.718 331.69 271.242 330.442 271.04 328.787C270.839 327.133 271.001 325.807 271.528 324.81C272.064 323.812 273.009 323.231 274.364 323.066C275.718 322.901 276.771 323.239 277.521 324.08C278.282 324.92 278.762 326.168 278.964 327.822C279.166 329.476 278.998 330.803 278.462 331.801C277.935 332.798 276.995 333.379 275.64 333.544ZM275.432 331.831C276.08 331.752 276.502 331.47 276.698 330.985C276.904 330.498 276.958 329.849 276.859 329.036L276.629 327.149C276.53 326.337 276.322 325.719 276.005 325.296C275.698 324.872 275.221 324.699 274.573 324.778C273.924 324.857 273.497 325.14 273.291 325.626C273.095 326.112 273.047 326.761 273.146 327.574L273.376 329.46C273.475 330.273 273.678 330.891 273.985 331.315C274.301 331.738 274.784 331.91 275.432 331.831ZM275.106 329.161C274.768 329.202 274.523 329.163 274.371 329.044C274.228 328.924 274.145 328.767 274.122 328.574L274.083 328.255C274.059 328.061 274.102 327.889 274.211 327.738C274.33 327.586 274.559 327.49 274.898 327.448C275.236 327.407 275.477 327.447 275.619 327.567C275.771 327.686 275.859 327.842 275.882 328.035L275.921 328.355C275.945 328.548 275.897 328.721 275.778 328.873C275.669 329.024 275.445 329.12 275.106 329.161ZM319.937 327.97L312.652 328.858L312.41 326.87L315.279 323.825C315.773 323.284 316.119 322.824 316.319 322.446C316.518 322.069 316.595 321.686 316.547 321.299L316.53 321.154C316.478 320.728 316.313 320.425 316.036 320.242C315.757 320.05 315.405 319.98 314.979 320.032C314.495 320.091 314.14 320.277 313.913 320.589C313.686 320.902 313.543 321.258 313.483 321.658L311.494 321.164C311.568 320.801 311.687 320.453 311.853 320.119C312.017 319.775 312.24 319.468 312.521 319.198C312.812 318.927 313.157 318.698 313.557 318.512C313.955 318.316 314.425 318.185 314.967 318.119C315.518 318.052 316.021 318.069 316.476 318.171C316.93 318.273 317.323 318.441 317.656 318.675C317.989 318.91 318.256 319.206 318.457 319.564C318.656 319.913 318.783 320.305 318.836 320.741C318.888 321.166 318.863 321.567 318.761 321.943C318.668 322.307 318.515 322.66 318.301 323C318.097 323.339 317.843 323.675 317.54 324.006C317.246 324.336 316.929 324.67 316.587 325.006L314.839 326.736L319.715 326.142L319.937 327.97ZM329.797 326.946C329.188 327.02 328.637 327.014 328.145 326.926C327.652 326.829 327.226 326.67 326.865 326.449C326.504 326.228 326.215 325.949 325.997 325.612C325.788 325.264 325.657 324.878 325.605 324.452C325.525 323.794 325.65 323.244 325.979 322.801C326.306 322.349 326.755 322.005 327.325 321.768L327.311 321.652C326.786 321.53 326.34 321.299 325.975 320.961C325.61 320.622 325.391 320.158 325.32 319.568C325.272 319.181 325.306 318.813 325.421 318.466C325.536 318.118 325.729 317.81 326 317.541C326.271 317.262 326.616 317.034 327.036 316.855C327.455 316.666 327.95 316.537 328.521 316.468C329.082 316.4 329.588 316.407 330.04 316.489C330.501 316.561 330.895 316.699 331.225 316.904C331.553 317.1 331.815 317.353 332.009 317.663C332.204 317.973 332.325 318.322 332.373 318.709C332.444 319.299 332.344 319.802 332.07 320.218C331.797 320.634 331.42 320.965 330.939 321.21L330.954 321.326C331.564 321.419 332.082 321.645 332.509 322.006C332.935 322.356 333.188 322.861 333.268 323.519C333.32 323.944 333.281 324.352 333.152 324.74C333.031 325.118 332.822 325.458 332.525 325.759C332.227 326.061 331.851 326.318 331.396 326.53C330.94 326.733 330.407 326.872 329.797 326.946ZM329.594 325.277C330.097 325.216 330.465 325.053 330.698 324.789C330.941 324.524 331.038 324.193 330.989 323.796L330.954 323.506C330.904 323.1 330.736 322.801 330.447 322.61C330.158 322.41 329.757 322.341 329.244 322.403C328.731 322.466 328.358 322.629 328.125 322.893C327.891 323.148 327.799 323.478 327.848 323.884L327.884 324.175C327.932 324.571 328.101 324.87 328.39 325.07C328.69 325.269 329.091 325.338 329.594 325.277ZM329.049 320.807C329.533 320.748 329.887 320.592 330.112 320.339C330.336 320.086 330.425 319.771 330.379 319.393L330.353 319.176C330.307 318.798 330.14 318.519 329.853 318.338C329.574 318.146 329.198 318.079 328.724 318.137C328.25 318.195 327.896 318.351 327.662 318.605C327.436 318.849 327.346 319.159 327.392 319.536L327.419 319.754C327.465 320.131 327.627 320.416 327.906 320.608C328.184 320.8 328.566 320.866 329.049 320.807ZM343.336 325.296C342.727 325.371 342.176 325.364 341.685 325.277C341.192 325.18 340.765 325.021 340.404 324.799C340.043 324.578 339.754 324.299 339.536 323.963C339.327 323.615 339.196 323.228 339.144 322.803C339.064 322.145 339.189 321.594 339.518 321.152C339.846 320.7 340.295 320.355 340.865 320.119L340.851 320.003C340.325 319.88 339.88 319.65 339.514 319.311C339.149 318.973 338.931 318.509 338.859 317.918C338.812 317.531 338.845 317.164 338.96 316.816C339.075 316.468 339.268 316.16 339.54 315.891C339.81 315.613 340.155 315.384 340.575 315.206C340.994 315.017 341.489 314.888 342.06 314.818C342.621 314.75 343.128 314.757 343.579 314.84C344.04 314.911 344.435 315.05 344.764 315.255C345.092 315.451 345.354 315.703 345.549 316.014C345.744 316.324 345.865 316.672 345.912 317.059C345.984 317.649 345.883 318.152 345.61 318.569C345.336 318.985 344.959 319.316 344.479 319.561L344.493 319.677C345.103 319.769 345.621 319.996 346.048 320.356C346.474 320.707 346.727 321.211 346.807 321.869C346.859 322.295 346.82 322.702 346.691 323.091C346.57 323.469 346.361 323.809 346.064 324.11C345.767 324.411 345.39 324.668 344.935 324.881C344.479 325.084 343.946 325.222 343.336 325.296ZM343.133 323.627C343.636 323.566 344.004 323.404 344.237 323.14C344.48 322.874 344.577 322.543 344.529 322.147L344.493 321.856C344.444 321.45 344.275 321.152 343.986 320.961C343.697 320.761 343.296 320.692 342.783 320.754C342.27 320.817 341.897 320.98 341.664 321.244C341.43 321.498 341.338 321.828 341.388 322.235L341.423 322.525C341.471 322.922 341.64 323.22 341.93 323.421C342.229 323.62 342.63 323.689 343.133 323.627ZM342.589 319.158C343.072 319.099 343.426 318.943 343.651 318.69C343.875 318.436 343.964 318.121 343.919 317.744L343.892 317.526C343.846 317.149 343.679 316.87 343.392 316.689C343.114 316.497 342.737 316.43 342.263 316.487C341.789 316.545 341.435 316.701 341.201 316.956C340.975 317.199 340.886 317.509 340.931 317.887L340.958 318.104C341.004 318.482 341.166 318.766 341.445 318.958C341.724 319.15 342.105 319.217 342.589 319.158ZM356.876 323.647C356.266 323.721 355.715 323.715 355.224 323.627C354.731 323.53 354.304 323.371 353.943 323.15C353.582 322.929 353.293 322.65 353.075 322.313C352.866 321.966 352.736 321.579 352.684 321.153C352.604 320.495 352.728 319.945 353.057 319.502C353.385 319.05 353.834 318.706 354.404 318.469L354.39 318.353C353.864 318.231 353.419 318 353.054 317.662C352.688 317.323 352.47 316.859 352.398 316.269C352.351 315.882 352.385 315.515 352.499 315.167C352.614 314.819 352.807 314.511 353.079 314.242C353.349 313.963 353.695 313.735 354.115 313.556C354.533 313.368 355.028 313.239 355.599 313.169C356.16 313.101 356.667 313.108 357.119 313.19C357.579 313.262 357.974 313.4 358.303 313.605C358.631 313.801 358.893 314.054 359.088 314.364C359.283 314.674 359.404 315.023 359.451 315.41C359.523 316 359.422 316.503 359.149 316.919C358.876 317.335 358.499 317.666 358.018 317.911L358.032 318.027C358.642 318.12 359.161 318.346 359.588 318.707C360.013 319.057 360.266 319.562 360.346 320.22C360.398 320.645 360.359 321.053 360.23 321.442C360.109 321.82 359.9 322.159 359.603 322.46C359.306 322.762 358.93 323.019 358.474 323.231C358.018 323.434 357.485 323.573 356.876 323.647ZM356.672 321.978C357.175 321.917 357.543 321.754 357.776 321.49C358.019 321.225 358.116 320.894 358.068 320.497L358.032 320.207C357.983 319.801 357.814 319.502 357.526 319.311C357.236 319.111 356.835 319.042 356.322 319.105C355.809 319.167 355.437 319.33 355.204 319.594C354.97 319.849 354.877 320.179 354.927 320.585L354.962 320.876C355.01 321.272 355.179 321.571 355.469 321.771C355.768 321.97 356.169 322.039 356.672 321.978ZM356.128 317.508C356.612 317.449 356.966 317.293 357.19 317.04C357.414 316.787 357.504 316.472 357.458 316.094L357.431 315.877C357.385 315.499 357.219 315.22 356.932 315.039C356.653 314.847 356.277 314.78 355.802 314.838C355.328 314.896 354.974 315.052 354.74 315.306C354.515 315.55 354.425 315.86 354.471 316.237L354.497 316.455C354.543 316.832 354.705 317.117 354.984 317.309C355.263 317.501 355.644 317.567 356.128 317.508ZM397.493 318.699C396.884 318.773 396.333 318.766 395.841 318.679C395.348 318.582 394.922 318.423 394.561 318.202C394.2 317.98 393.911 317.702 393.693 317.365C393.484 317.017 393.353 316.631 393.301 316.205C393.221 315.547 393.346 314.997 393.675 314.554C394.002 314.102 394.451 313.757 395.022 313.521L395.007 313.405C394.482 313.282 394.037 313.052 393.671 312.713C393.306 312.375 393.087 311.911 393.016 311.321C392.968 310.934 393.002 310.566 393.117 310.218C393.232 309.871 393.425 309.562 393.696 309.294C393.967 309.015 394.312 308.787 394.732 308.608C395.151 308.419 395.646 308.29 396.217 308.221C396.778 308.152 397.284 308.159 397.736 308.242C398.197 308.313 398.592 308.452 398.921 308.657C399.249 308.853 399.511 309.106 399.706 309.416C399.9 309.726 400.021 310.074 400.069 310.461C400.14 311.051 400.04 311.555 399.766 311.971C399.493 312.387 399.116 312.718 398.635 312.963L398.65 313.079C399.26 313.172 399.778 313.398 400.205 313.758C400.631 314.109 400.884 314.613 400.964 315.271C401.016 315.697 400.977 316.104 400.848 316.493C400.727 316.871 400.518 317.211 400.221 317.512C399.923 317.813 399.547 318.07 399.092 318.283C398.636 318.486 398.103 318.624 397.493 318.699ZM397.29 317.03C397.793 316.968 398.161 316.806 398.394 316.542C398.637 316.276 398.734 315.946 398.685 315.549L398.65 315.259C398.601 314.852 398.432 314.554 398.143 314.363C397.854 314.163 397.453 314.094 396.94 314.156C396.427 314.219 396.054 314.382 395.821 314.646C395.587 314.9 395.495 315.231 395.544 315.637L395.58 315.927C395.628 316.324 395.797 316.622 396.087 316.823C396.386 317.022 396.787 317.091 397.29 317.03ZM396.745 312.56C397.229 312.501 397.583 312.345 397.808 312.092C398.032 311.839 398.121 311.523 398.075 311.146L398.049 310.928C398.003 310.551 397.836 310.272 397.549 310.091C397.271 309.899 396.894 309.832 396.42 309.89C395.946 309.947 395.592 310.103 395.358 310.358C395.132 310.601 395.042 310.912 395.088 311.289L395.115 311.507C395.161 311.884 395.323 312.169 395.602 312.36C395.88 312.552 396.262 312.619 396.745 312.56ZM411.032 317.049C409.678 317.214 408.621 316.877 407.86 316.036C407.11 315.195 406.634 313.947 406.432 312.293C406.231 310.638 406.393 309.313 406.92 308.316C407.456 307.318 408.401 306.736 409.756 306.571C411.11 306.406 412.163 306.744 412.913 307.586C413.674 308.426 414.155 309.673 414.356 311.328C414.558 312.982 414.39 314.308 413.854 315.306C413.327 316.303 412.387 316.884 411.032 317.049ZM410.824 315.337C411.472 315.258 411.894 314.976 412.09 314.49C412.296 314.004 412.35 313.354 412.251 312.541L412.021 310.655C411.922 309.842 411.714 309.224 411.397 308.801C411.09 308.377 410.613 308.205 409.965 308.284C409.316 308.363 408.889 308.645 408.683 309.132C408.487 309.617 408.439 310.266 408.538 311.079L408.768 312.966C408.867 313.778 409.07 314.397 409.377 314.821C409.693 315.244 410.176 315.416 410.824 315.337ZM410.499 312.666C410.16 312.708 409.915 312.669 409.763 312.55C409.62 312.43 409.537 312.273 409.514 312.079L409.475 311.76C409.451 311.567 409.494 311.395 409.604 311.244C409.722 311.092 409.951 310.995 410.29 310.954C410.629 310.913 410.869 310.952 411.011 311.072C411.163 311.191 411.251 311.347 411.275 311.541L411.313 311.86C411.337 312.054 411.289 312.226 411.17 312.378C411.061 312.529 410.837 312.625 410.499 312.666ZM422.577 315.466L425.041 306.683L421.762 307.082L421.986 308.925L420.143 309.15L419.703 305.536L426.988 304.649L427.218 306.535L424.87 315.187L422.577 315.466ZM440.352 304.95L435.665 305.521L435.824 308.756L435.954 308.74C436.032 308.495 436.127 308.268 436.239 308.058C436.35 307.838 436.489 307.649 436.656 307.491C436.822 307.324 437.022 307.187 437.254 307.08C437.486 306.973 437.758 306.901 438.067 306.863C438.483 306.812 438.884 306.837 439.269 306.937C439.664 307.037 440.019 307.209 440.334 307.456C440.657 307.691 440.926 308.002 441.14 308.389C441.352 308.765 441.489 309.205 441.551 309.708C441.613 310.221 441.584 310.706 441.463 311.162C441.342 311.619 441.131 312.027 440.832 312.388C440.541 312.747 440.161 313.049 439.69 313.293C439.218 313.527 438.667 313.682 438.038 313.759C437.545 313.819 437.098 313.82 436.698 313.76C436.298 313.701 435.938 313.603 435.617 313.465C435.304 313.317 435.022 313.14 434.771 312.935C434.529 312.719 434.315 312.494 434.13 312.262L435.56 310.821C435.699 311 435.843 311.169 435.99 311.328C436.146 311.486 436.315 311.622 436.496 311.738C436.685 311.842 436.887 311.921 437.099 311.974C437.32 312.015 437.566 312.02 437.837 311.987C438.379 311.921 438.768 311.726 439.003 311.403C439.247 311.069 439.339 310.655 439.279 310.162L439.265 310.046C439.207 309.571 439.021 309.216 438.708 308.979C438.394 308.743 437.991 308.654 437.497 308.714C437.091 308.764 436.762 308.887 436.512 309.085C436.269 309.272 436.09 309.45 435.973 309.622L434.158 309.593L433.837 303.814L440.121 303.049L440.352 304.95Z" fill="white"/>
<ellipse cx="429.708" cy="349.192" rx="11.8023" ry="11.5739" transform="rotate(-6.946 429.708 349.192)" fill="white" fill-opacity="0.67"/>
<ellipse cx="443.768" cy="347.479" rx="11.8023" ry="11.5739" transform="rotate(-6.946 443.768 347.479)" fill="white" fill-opacity="0.7"/>
<rect x="140.989" y="280.927" width="27.4873" height="20.8156" rx="4.003" transform="rotate(-6.946 140.989 280.927)" fill="url(#paint3_linear_0_177)" stroke="#666666" stroke-width="0.533734"/>
<path fill-rule="evenodd" clip-rule="evenodd" d="M159.077 283.176C157.895 281.393 156.22 280.084 155.167 279.621C155.097 279.592 155.042 279.536 155.014 279.466C154.986 279.395 154.987 279.317 155.016 279.247C155.046 279.178 155.102 279.123 155.172 279.095C155.242 279.067 155.321 279.067 155.39 279.097C156.769 279.695 158.476 281.244 159.542 282.85C159.567 282.881 159.585 282.916 159.594 282.954C159.604 282.992 159.605 283.031 159.598 283.069C159.59 283.108 159.574 283.144 159.552 283.175C159.529 283.207 159.499 283.233 159.465 283.252C159.429 283.277 159.388 283.294 159.344 283.299C159.293 283.305 159.24 283.297 159.193 283.275C159.146 283.254 159.106 283.219 159.077 283.176ZM151.578 293.309C151.917 295.939 154.775 298.775 156.604 299.581C156.639 299.594 156.67 299.615 156.697 299.641C156.724 299.667 156.744 299.699 156.758 299.734C156.772 299.769 156.778 299.806 156.776 299.843C156.774 299.881 156.765 299.917 156.748 299.951C156.728 299.995 156.697 300.034 156.658 300.063C156.618 300.093 156.572 300.111 156.524 300.118C156.474 300.124 156.424 300.116 156.379 300.095C154.429 299.244 151.558 296.412 151.057 293.625L142.674 294.646C142.604 294.648 142.536 294.624 142.483 294.578C142.429 294.532 142.395 294.468 142.387 294.398C142.378 294.328 142.396 294.258 142.437 294.201C142.477 294.143 142.538 294.103 142.606 294.088L151.042 293.06C151.345 291.144 151.106 289.181 150.352 287.394L141.916 288.421C141.842 288.43 141.768 288.41 141.709 288.364C141.651 288.318 141.613 288.251 141.604 288.177C141.595 288.104 141.616 288.029 141.661 287.971C141.707 287.912 141.774 287.874 141.848 287.865L150.231 286.844C150.047 284.007 152.166 280.578 153.843 279.286C153.904 279.24 153.98 279.221 154.055 279.231C154.13 279.242 154.197 279.282 154.243 279.342C154.288 279.402 154.308 279.478 154.297 279.553C154.287 279.628 154.247 279.696 154.186 279.741C152.603 280.95 150.51 284.392 150.812 287.029C151.669 289.004 151.934 291.186 151.578 293.309ZM169.866 290.767L161.414 291.797C160.66 290.009 160.421 288.046 160.723 286.13L169.175 285.101C169.249 285.092 169.316 285.054 169.362 284.995C169.408 284.937 169.428 284.862 169.419 284.789C169.41 284.715 169.373 284.648 169.314 284.602C169.256 284.556 169.181 284.536 169.108 284.545L160.441 285.6C160.381 285.608 160.325 285.636 160.282 285.678C160.239 285.721 160.21 285.776 160.201 285.836C159.837 287.976 160.105 290.175 160.972 292.165C161.274 294.799 159.181 298.238 157.599 299.46C157.567 299.48 157.54 299.507 157.52 299.539C157.499 299.57 157.485 299.606 157.479 299.643C157.474 299.681 157.476 299.719 157.486 299.755C157.496 299.792 157.513 299.825 157.537 299.855C157.567 299.893 157.607 299.923 157.652 299.942C157.697 299.961 157.746 299.968 157.795 299.963C157.844 299.957 157.891 299.937 157.93 299.906C159.61 298.627 161.726 295.174 161.543 292.348L169.934 291.326C170.002 291.31 170.063 291.27 170.103 291.213C170.144 291.155 170.162 291.085 170.153 291.015C170.145 290.946 170.11 290.882 170.057 290.836C170.004 290.79 169.936 290.765 169.866 290.767ZM154.525 280.742C154.6 280.678 154.693 280.637 154.791 280.625C154.923 280.609 155.056 280.646 155.161 280.728C155.266 280.81 155.334 280.93 155.35 281.062C155.362 281.16 155.344 281.26 155.3 281.349C155.255 281.437 155.185 281.51 155.098 281.559C155.012 281.608 154.913 281.63 154.814 281.623C154.715 281.615 154.621 281.579 154.543 281.517C154.465 281.456 154.407 281.373 154.376 281.279C154.345 281.185 154.342 281.084 154.369 280.988C154.395 280.893 154.45 280.807 154.525 280.742Z" fill="#666666"/>
<path d="M142.758 239.75C142.665 239.838 142.555 239.906 142.436 239.952C142.316 239.998 142.189 240.019 142.061 240.016C141.802 240.008 141.558 239.899 141.38 239.711C141.202 239.523 141.107 239.273 141.114 239.014C141.121 238.756 141.231 238.511 141.419 238.333C141.855 237.918 142.354 237.573 142.898 237.313C143.462 237.043 144.066 236.867 144.687 236.793C145.306 236.717 145.934 236.742 146.545 236.869C147.135 236.991 147.702 237.205 148.226 237.504C148.451 237.631 148.616 237.843 148.685 238.092C148.754 238.341 148.721 238.607 148.594 238.832C148.467 239.057 148.255 239.222 148.006 239.291C147.757 239.36 147.491 239.328 147.266 239.2C146.923 239.003 146.55 238.86 146.163 238.778C145.755 238.69 145.336 238.67 144.922 238.718C144.51 238.766 144.109 238.882 143.735 239.059C143.374 239.236 143.044 239.469 142.758 239.75ZM140.552 236.658C141.68 235.756 143.037 235.189 144.471 235.019C145.901 234.838 147.353 235.06 148.663 235.66C148.78 235.714 148.905 235.744 149.033 235.749C149.161 235.754 149.289 235.734 149.409 235.69C149.529 235.645 149.639 235.578 149.733 235.491C149.827 235.404 149.903 235.3 149.957 235.183C150.01 235.067 150.041 234.942 150.046 234.814C150.051 234.686 150.03 234.558 149.986 234.438C149.942 234.318 149.874 234.208 149.788 234.114C149.701 234.02 149.596 233.944 149.48 233.89C147.841 233.138 146.025 232.86 144.236 233.089C142.443 233.296 140.745 234.002 139.333 235.126C139.233 235.206 139.15 235.305 139.088 235.417C139.027 235.529 138.988 235.652 138.973 235.78C138.959 235.907 138.97 236.036 139.006 236.159C139.041 236.282 139.101 236.396 139.181 236.496C139.261 236.596 139.36 236.679 139.472 236.741C139.584 236.803 139.707 236.842 139.834 236.856C139.962 236.87 140.09 236.859 140.213 236.824C140.336 236.788 140.451 236.728 140.551 236.649L140.552 236.658ZM138.301 233.356C139.964 232.092 141.933 231.294 144.006 231.043C146.077 230.79 148.178 231.092 150.094 231.919C150.212 231.97 150.338 231.997 150.466 231.999C150.594 232.001 150.721 231.978 150.84 231.931C150.96 231.884 151.068 231.814 151.16 231.725C151.252 231.636 151.326 231.53 151.377 231.412C151.428 231.295 151.455 231.169 151.457 231.041C151.459 230.912 151.436 230.785 151.389 230.666C151.342 230.547 151.272 230.438 151.183 230.346C151.094 230.254 150.988 230.181 150.87 230.13C148.639 229.162 146.189 228.809 143.775 229.108C141.351 229.395 139.048 230.325 137.104 231.802C136.898 231.961 136.764 232.195 136.73 232.453C136.697 232.711 136.767 232.972 136.926 233.178C137.085 233.384 137.319 233.518 137.577 233.552C137.835 233.585 138.095 233.515 138.301 233.356ZM136.029 230.071C138.224 228.439 140.808 227.409 143.524 227.084C146.237 226.748 148.99 227.128 151.512 228.184C151.629 228.233 151.756 228.258 151.883 228.258C152.011 228.258 152.137 228.233 152.255 228.184C152.372 228.135 152.479 228.063 152.569 227.973C152.659 227.883 152.731 227.776 152.78 227.658C152.828 227.54 152.853 227.414 152.853 227.286C152.853 227.159 152.828 227.033 152.779 226.915C152.73 226.797 152.658 226.69 152.568 226.6C152.478 226.51 152.371 226.438 152.253 226.39C149.419 225.203 146.324 224.776 143.274 225.151C140.215 225.516 137.304 226.675 134.831 228.512C134.624 228.665 134.485 228.894 134.447 229.148C134.408 229.403 134.472 229.662 134.624 229.87C134.777 230.077 135.006 230.215 135.26 230.254C135.515 230.293 135.774 230.229 135.982 230.076" fill="white"/>
<defs>
<linearGradient id="paint0_linear_0_177" x1="219.656" y1="0" x2="219.656" y2="212.462" gradientUnits="userSpaceOnUse">
<stop stop-color="#FEBBC7"/>
<stop offset="1" stop-color="#FF8CA1"/>
</linearGradient>
<linearGradient id="paint1_linear_0_177" x1="56.3455" y1="79.1971" x2="87.7532" y2="99.5421" gradientUnits="userSpaceOnUse">
<stop stop-color="#DDD9D6"/>
<stop offset="0.212761" stop-color="#8A868C"/>
<stop offset="0.548384" stop-color="#F2F3F3" stop-opacity="0.8"/>
<stop offset="0.914316" stop-color="#807C80"/>
<stop offset="1" stop-color="#A6A8AB"/>
</linearGradient>
<linearGradient id="paint2_linear_0_177" x1="302.835" y1="198.365" x2="302.835" y2="452.991" gradientUnits="userSpaceOnUse">
<stop stop-color="#BDB2FD"/>
<stop offset="1" stop-color="#917FF2"/>
</linearGradient>
<linearGradient id="paint3_linear_0_177" x1="138.023" y1="280.695" x2="170.981" y2="302.044" gradientUnits="userSpaceOnUse">
<stop stop-color="#DDD9D6"/>
<stop offset="0.212761" stop-color="#8A868C"/>
<stop offset="0.548384" stop-color="#F2F3F3" stop-opacity="0.8"/>
<stop offset="0.914316" stop-color="#807C80"/>
<stop offset="1" stop-color="#A6A8AB"/>
</linearGradient>
</defs>
</svg>
